<svg width="259" height="201" viewBox="0 0 259 201" fill="none" xmlns="http://www.w3.org/2000/svg">
<g clip-path="url(#clip0_357_16798)">
<path d="M41.0031 119.625V154.789H32.845V138.643L33.1159 127.826H33.0061L24.2547 154.782H16.7923L8.04098 127.826H7.93113L8.20209 138.643V154.789H0V119.625H13.1526L18.733 137.523L20.7176 144.982H20.8274L22.8633 137.574L28.3924 119.618H41.0031V119.625Z" fill="#102F4B"/>
<path d="M56.8346 155.321C53.8613 155.321 51.2982 154.768 49.1305 153.67C46.9628 152.573 45.2931 150.988 44.114 148.931C42.935 146.873 42.3418 144.387 42.3418 141.472C42.3418 138.557 42.935 136.07 44.114 134.013C45.2931 131.956 46.9481 130.371 49.0792 129.273C51.2103 128.176 53.649 127.623 56.4025 127.623C59.1561 127.623 61.6387 128.168 63.6233 129.244C65.6079 130.327 67.1238 131.818 68.1564 133.722C69.1963 135.62 69.7089 137.801 69.7089 140.251C69.7089 140.89 69.6943 141.53 69.6577 142.17C69.6211 142.809 69.5698 143.34 69.4966 143.769H48.2444V138.92H65.4688L61.1187 140.57C61.1187 138.44 60.7306 136.805 59.9616 135.671C59.1927 134.537 57.999 133.962 56.3952 133.962C55.2528 133.962 54.2714 134.231 53.4732 134.762C52.675 135.293 52.0598 136.129 51.6497 137.263C51.2396 138.397 51.0345 139.858 51.0345 141.632C51.0345 143.406 51.2689 144.787 51.7303 145.87C52.1916 146.953 52.858 147.731 53.7149 148.211C54.5717 148.691 55.6116 148.931 56.8273 148.931C58.1894 148.931 59.2659 148.662 60.0715 148.131C60.8771 147.6 61.4776 146.851 61.873 145.892L69.1743 148.291C68.6764 149.817 67.8049 151.104 66.5746 152.151C65.3369 153.198 63.8723 153.99 62.1733 154.521C60.4743 155.052 58.6947 155.321 56.8346 155.321Z" fill="#102F4B"/>
<path d="M80.3931 155.32C78.1742 155.32 76.2335 154.782 74.5711 153.692C72.9087 152.609 71.6198 151.039 70.7044 148.974C69.789 146.917 69.335 144.445 69.335 141.566C69.335 138.687 69.811 136.063 70.7557 133.998C71.7004 131.941 73.0259 130.356 74.7249 129.258C76.4239 128.161 78.3792 127.608 80.5982 127.608C83.0295 127.608 84.9922 128.342 86.4715 129.818C87.9581 131.294 88.9101 133.17 89.3422 135.438L88.4854 136.557V116.842H97.6102V154.775H89.452L88.8589 145.717L89.9354 146.517C89.723 148.291 89.1738 149.839 88.295 151.155C87.4162 152.471 86.3104 153.488 84.9702 154.215C83.63 154.942 82.0995 155.306 80.3785 155.306L80.3931 155.32ZM83.5568 148.661C84.5967 148.661 85.4828 148.385 86.2152 147.833C86.9475 147.28 87.5114 146.459 87.9068 145.354C88.3023 144.256 88.5 142.904 88.5 141.304C88.5 139.814 88.3096 138.542 87.9361 137.495C87.5626 136.448 87.0061 135.649 86.2737 135.096C85.5414 134.544 84.6553 134.267 83.6154 134.267C82.0409 134.267 80.7959 134.842 79.8878 135.997C78.9724 137.153 78.5184 138.971 78.5184 141.457C78.5184 143.943 78.9651 145.761 79.8585 146.917C80.752 148.072 81.9896 148.647 83.5641 148.647L83.5568 148.661Z" fill="#102F4B"/>
<path d="M104.437 125.056C102.577 125.056 101.222 124.708 100.388 124.017C99.5454 123.326 99.1279 122.229 99.1279 120.738C99.1279 119.248 99.5454 118.099 100.388 117.409C101.23 116.718 102.577 116.369 104.437 116.369C106.297 116.369 107.601 116.718 108.465 117.409C109.322 118.099 109.754 119.212 109.754 120.738C109.754 122.265 109.322 123.319 108.465 124.017C107.608 124.708 106.268 125.056 104.437 125.056ZM109 128.146V154.782H99.8749V128.146H109Z" fill="#102F4B"/>
<path d="M127.323 119.088C130.618 119.088 133.518 119.597 136.045 120.607C138.564 121.618 140.761 123.101 142.621 125.056L138.168 130.966C136.63 129.367 134.975 128.168 133.203 127.368C131.431 126.568 129.417 126.168 127.161 126.168C125.836 126.168 124.767 126.314 123.939 126.597C123.119 126.881 122.526 127.273 122.167 127.768C121.808 128.262 121.632 128.836 121.632 129.476C121.632 130.225 121.984 130.85 122.68 131.366C123.375 131.882 124.51 132.319 126.085 132.675L132.039 134.005C135.583 134.819 138.176 136.012 139.823 137.575C141.471 139.138 142.291 141.217 142.291 143.805C142.291 146.393 141.647 148.392 140.358 150.115C139.069 151.838 137.297 153.132 135.049 154.004C132.793 154.877 130.215 155.313 127.323 155.313C124.964 155.313 122.709 155.058 120.563 154.542C118.417 154.026 116.484 153.292 114.763 152.332C113.049 151.373 111.599 150.275 110.413 149.032L114.866 142.903C115.759 143.936 116.858 144.844 118.168 145.644C119.479 146.444 120.907 147.076 122.46 147.534C124.012 147.999 125.602 148.225 127.213 148.225C128.465 148.225 129.512 148.101 130.354 147.854C131.197 147.607 131.812 147.236 132.207 146.734C132.603 146.24 132.8 145.651 132.8 144.975C132.8 144.226 132.529 143.601 131.995 143.085C131.46 142.569 130.442 142.133 128.934 141.777L122.387 140.337C120.38 139.879 118.601 139.261 117.048 138.498C115.488 137.735 114.265 136.702 113.372 135.408C112.478 134.114 112.032 132.486 112.032 130.53C112.032 128.328 112.639 126.365 113.855 124.642C115.071 122.919 116.821 121.559 119.113 120.564C121.405 119.568 124.137 119.073 127.323 119.073V119.088Z" fill="#5EA9B9"/>
<path d="M145.786 154.782V119.618H173.373V126.706H155.021V133.845H169.616V140.504H155.021V147.694H174.076V154.782H145.793H145.786Z" fill="#5EA9B9"/>
<path d="M209.27 119.626V154.79H199.018L188.018 135.772L185.338 130.552H185.287L185.499 137.051V154.79H177.341V119.626H187.593L198.593 138.644L201.281 143.863H201.332L201.12 137.364V119.626H209.278H209.27Z" fill="#5EA9B9"/>
<path d="M247 154.782H237.502L235.034 146.843H222.907L220.387 154.782H211.102L223.551 119.618H234.609L247.008 154.782H247ZM224.62 140.613H233.313L228.963 126.386L224.613 140.613H224.62Z" fill="#5EA9B9"/>
<path d="M71.9593 162.19V171.554H70.4287V162.19H71.9593Z" fill="#606060"/>
<path d="M77.773 162.19C78.7763 162.19 79.5745 162.452 80.1823 162.968C80.7902 163.492 81.0904 164.204 81.0904 165.127C81.0904 166.051 80.7902 166.749 80.1823 167.279C79.5745 167.803 78.7763 168.064 77.773 168.064H75.6712V171.554H74.1406V162.19H77.773ZM77.5313 166.756C78.2051 166.756 78.703 166.618 79.0253 166.341C79.3475 166.065 79.5013 165.658 79.5013 165.12C79.5013 164.582 79.3402 164.175 79.0253 163.892C78.703 163.615 78.2051 163.47 77.5313 163.47H75.6712V166.749H77.5313V166.756Z" fill="#606060"/>
<path d="M85.7036 162.045C86.5531 162.045 87.2854 162.205 87.9006 162.517C88.523 162.837 89.043 163.303 89.4751 163.913L88.4498 164.895C88.091 164.349 87.6809 163.95 87.2268 163.71C86.7728 163.47 86.2382 163.346 85.623 163.346C84.9273 163.346 84.422 163.477 84.1071 163.746C83.7922 164.015 83.6384 164.335 83.6384 164.713C83.6384 165.004 83.7409 165.258 83.946 165.476C84.151 165.694 84.5319 165.862 85.0957 165.985L87.0071 166.414C87.9152 166.625 88.5597 166.93 88.9405 167.33C89.3213 167.73 89.519 168.246 89.519 168.871C89.519 169.445 89.3652 169.947 89.0503 170.369C88.7354 170.79 88.296 171.118 87.7395 171.35C87.1756 171.583 86.5238 171.699 85.7841 171.699C84.7808 171.699 83.9313 171.51 83.2283 171.139C82.5253 170.769 81.9834 170.303 81.6025 169.744L82.6571 168.697C82.95 169.198 83.3675 169.605 83.9094 169.925C84.444 170.245 85.0884 170.398 85.8281 170.398C86.4872 170.398 86.9998 170.282 87.3806 170.049C87.7541 169.816 87.9445 169.482 87.9445 169.046C87.9445 168.784 87.8493 168.544 87.6662 168.326C87.4831 168.108 87.1316 167.948 86.6336 167.839L84.5611 167.374C83.7043 167.192 83.0672 166.894 82.6644 166.479C82.2616 166.065 82.0493 165.542 82.0493 164.916C82.0493 164.386 82.1957 163.906 82.4887 163.47C82.7816 163.034 83.2063 162.692 83.7556 162.437C84.3048 162.183 84.9566 162.052 85.7182 162.052L85.7036 162.045Z" fill="#606060"/>
<path d="M98.4034 162.19C99.8827 162.19 101.032 162.598 101.853 163.404C102.673 164.211 103.09 165.367 103.09 166.872C103.09 168.377 102.68 169.533 101.853 170.34C101.032 171.147 99.8754 171.554 98.4034 171.554H95.0713V162.19H98.4034ZM98.4034 170.26C99.4067 170.26 100.168 169.962 100.696 169.373C101.223 168.784 101.486 167.948 101.486 166.872C101.486 165.796 101.223 164.96 100.696 164.371C100.168 163.782 99.3993 163.484 98.4034 163.484H96.6019V170.267H98.4034V170.26Z" fill="#606060"/>
<path d="M105.302 163.266C104.965 163.266 104.716 163.186 104.54 163.019C104.364 162.852 104.276 162.619 104.276 162.314C104.276 162.008 104.364 161.783 104.54 161.616C104.716 161.456 104.972 161.376 105.302 161.376C105.631 161.376 105.873 161.456 106.049 161.616C106.224 161.776 106.312 162.008 106.312 162.314C106.312 162.619 106.224 162.852 106.049 163.019C105.873 163.186 105.624 163.266 105.302 163.266ZM106.063 164.458V171.546H104.533V164.458H106.063Z" fill="#606060"/>
<path d="M111.864 170.441C112.589 170.441 113.153 170.601 113.548 170.913C113.951 171.233 114.149 171.669 114.149 172.222C114.149 172.723 113.995 173.152 113.68 173.508C113.365 173.865 112.94 174.134 112.391 174.315C111.849 174.497 111.234 174.592 110.545 174.592C109.366 174.592 108.495 174.41 107.938 174.054C107.382 173.697 107.104 173.247 107.104 172.709C107.104 172.389 107.199 172.098 107.389 171.844C107.58 171.589 107.894 171.415 108.334 171.32C108.07 171.204 107.858 171.051 107.704 170.848C107.55 170.644 107.477 170.382 107.477 170.063C107.477 169.743 107.565 169.474 107.748 169.234C107.931 168.994 108.195 168.812 108.546 168.689C107.792 168.26 107.418 167.605 107.418 166.719C107.418 165.999 107.697 165.417 108.261 164.981C108.824 164.545 109.564 164.32 110.487 164.32C111.087 164.32 111.615 164.414 112.076 164.603C112.149 164.13 112.362 163.738 112.706 163.433C113.05 163.127 113.482 162.975 114.009 162.975H114.127L114.368 164.167C114.324 164.16 114.266 164.152 114.2 164.152C113.38 164.152 112.926 164.45 112.83 165.046C113.336 165.483 113.585 166.042 113.585 166.719C113.585 167.445 113.306 168.027 112.742 168.463C112.179 168.899 111.432 169.118 110.502 169.118C110.113 169.118 109.755 169.081 109.432 169.016C109.176 169.081 108.993 169.183 108.883 169.321C108.773 169.459 108.722 169.605 108.722 169.757C108.722 170.223 109.059 170.455 109.74 170.455H111.886L111.864 170.441ZM110.545 173.465C111.329 173.465 111.908 173.363 112.281 173.152C112.655 172.941 112.845 172.701 112.845 172.418C112.845 172.2 112.757 172.025 112.581 171.895C112.406 171.764 112.091 171.698 111.629 171.698H109.33C109.052 171.698 108.824 171.771 108.649 171.909C108.473 172.047 108.385 172.236 108.385 172.462C108.385 172.774 108.575 173.021 108.956 173.196C109.337 173.378 109.864 173.465 110.545 173.465ZM110.487 165.381C110.047 165.381 109.681 165.504 109.396 165.744C109.103 165.984 108.956 166.311 108.956 166.719C108.956 167.126 109.103 167.453 109.396 167.7C109.689 167.947 110.047 168.071 110.487 168.071C110.926 168.071 111.307 167.947 111.593 167.7C111.886 167.453 112.032 167.126 112.032 166.719C112.032 166.311 111.886 165.992 111.593 165.744C111.3 165.504 110.934 165.381 110.487 165.381Z" fill="#606060"/>
<path d="M115.708 163.266C115.371 163.266 115.122 163.186 114.946 163.019C114.77 162.852 114.683 162.619 114.683 162.314C114.683 162.008 114.77 161.783 114.946 161.616C115.122 161.456 115.378 161.376 115.708 161.376C116.037 161.376 116.279 161.456 116.462 161.616C116.638 161.776 116.726 162.008 116.726 162.314C116.726 162.619 116.638 162.852 116.462 163.019C116.286 163.186 116.037 163.266 115.708 163.266ZM116.462 164.458V171.546H114.932V164.458H116.462Z" fill="#606060"/>
<path d="M122.775 164.458V165.651H120.314V169.424C120.314 169.765 120.409 170.02 120.6 170.18C120.79 170.347 121.039 170.427 121.339 170.427C121.603 170.427 121.83 170.383 122.02 170.303C122.203 170.223 122.379 170.114 122.54 169.969L122.885 171.074C122.665 171.263 122.394 171.415 122.079 171.517C121.764 171.619 121.405 171.677 121.017 171.677C120.387 171.677 119.86 171.525 119.428 171.219C119.003 170.914 118.784 170.398 118.784 169.663V165.636H117.414V164.444H118.784V162.786L120.314 162.357V164.444H122.775V164.458Z" fill="#606060"/>
<path d="M127.806 166.996C127.806 166.523 127.674 166.16 127.41 165.898C127.146 165.636 126.788 165.505 126.334 165.505C125.909 165.505 125.535 165.607 125.228 165.803C124.92 166 124.693 166.327 124.561 166.77L123.272 166.232C123.456 165.658 123.807 165.193 124.334 164.844C124.862 164.495 125.55 164.32 126.385 164.32C126.949 164.32 127.447 164.415 127.893 164.597C128.333 164.778 128.684 165.062 128.933 165.433C129.182 165.803 129.314 166.276 129.314 166.843V170.005C129.314 170.354 129.49 170.529 129.841 170.529C130.01 170.529 130.178 170.507 130.339 170.456L130.252 171.503C130.032 171.605 129.754 171.655 129.424 171.655C129.043 171.655 128.714 171.568 128.435 171.401C128.157 171.234 127.974 170.979 127.879 170.638C127.652 170.987 127.322 171.248 126.89 171.423C126.465 171.597 126.033 171.685 125.601 171.685C124.928 171.685 124.364 171.525 123.917 171.205C123.47 170.885 123.243 170.398 123.243 169.758C123.243 169.242 123.419 168.806 123.763 168.464C124.107 168.122 124.605 167.89 125.242 167.752L127.784 167.257V166.988L127.806 166.996ZM124.803 169.649C124.803 169.911 124.906 170.122 125.111 170.281C125.316 170.434 125.587 170.514 125.931 170.514C126.253 170.514 126.561 170.463 126.846 170.361C127.132 170.26 127.366 170.085 127.542 169.853C127.718 169.62 127.806 169.307 127.806 168.929V168.333L126.004 168.704C125.594 168.777 125.294 168.886 125.096 169.031C124.898 169.169 124.803 169.38 124.803 169.656V169.649Z" fill="#606060"/>
<path d="M132.691 161.267V169.562C132.691 169.911 132.75 170.151 132.874 170.289C132.999 170.42 133.204 170.485 133.489 170.485C133.658 170.485 133.804 170.47 133.922 170.449C134.039 170.427 134.192 170.383 134.368 170.311L134.2 171.445C133.863 171.605 133.467 171.685 133.013 171.685C132.376 171.685 131.908 171.525 131.607 171.205C131.307 170.885 131.153 170.376 131.153 169.685V161.26H132.684L132.691 161.267Z" fill="#606060"/>
<path d="M142.512 162.045C143.361 162.045 144.094 162.205 144.709 162.517C145.324 162.837 145.851 163.303 146.283 163.913L145.258 164.895C144.892 164.349 144.489 163.95 144.035 163.71C143.581 163.47 143.046 163.346 142.424 163.346C141.728 163.346 141.223 163.477 140.908 163.746C140.593 164.008 140.439 164.335 140.439 164.713C140.439 165.004 140.542 165.258 140.747 165.476C140.952 165.694 141.333 165.862 141.897 165.985L143.808 166.414C144.716 166.625 145.36 166.93 145.741 167.33C146.122 167.73 146.32 168.246 146.32 168.871C146.32 169.445 146.166 169.947 145.851 170.369C145.536 170.79 145.097 171.118 144.54 171.35C143.976 171.583 143.325 171.699 142.585 171.699C141.582 171.699 140.732 171.51 140.029 171.139C139.326 170.769 138.784 170.303 138.403 169.744L139.458 168.697C139.751 169.198 140.168 169.605 140.71 169.925C141.245 170.245 141.889 170.398 142.629 170.398C143.288 170.398 143.801 170.282 144.181 170.049C144.562 169.816 144.745 169.482 144.745 169.046C144.745 168.784 144.65 168.544 144.467 168.326C144.284 168.108 143.932 167.948 143.434 167.839L141.362 167.374C140.505 167.192 139.868 166.894 139.465 166.479C139.055 166.065 138.85 165.542 138.85 164.916C138.85 164.386 138.997 163.906 139.289 163.47C139.582 163.034 140.007 162.692 140.556 162.437C141.106 162.183 141.757 162.052 142.519 162.052L142.512 162.045Z" fill="#606060"/>
<path d="M147.851 171.546V162.183H154.683V163.484H149.381V166.181H153.526V167.46H149.381V170.237H154.881V171.539H147.851V171.546Z" fill="#606060"/>
<path d="M164.057 162.19V171.554H162.24L158.593 165.651L157.678 163.993H157.663L157.722 165.513V171.554H156.323V162.19H158.125L161.757 168.079L162.687 169.765H162.702L162.643 168.232V162.19H164.057Z" fill="#606060"/>
<path d="M174.053 171.546H172.434L171.533 169.089H167.579L166.678 171.546H165.104L168.663 162.183H170.493L174.053 171.546ZM168.011 167.86H171.109L169.563 163.491L168.004 167.86H168.011Z" fill="#606060"/>
<path d="M116.029 46.4634C116.812 47.1976 117.42 47.8737 118.05 48.7388C118.379 49.1895 118.606 49.7202 119.031 50.0982C119.207 50.0982 119.06 49.4076 119.031 49.284C118.943 48.826 118.746 48.2445 118.592 47.7937C118.504 47.5466 118.13 46.9068 118.189 46.7033C118.211 46.6524 118.248 46.6015 118.299 46.5724C118.497 46.4707 119.361 46.856 119.646 46.9214C120.752 47.1758 121.836 47.1831 122.935 46.9214C123.227 46.8487 124.399 46.3907 124.568 46.4925C124.626 46.587 124.619 46.6597 124.597 46.7615C124.516 47.1177 124.128 47.7283 123.989 48.1427C123.887 48.448 123.572 49.4585 123.747 49.713L123.894 49.7493C124.114 49.7057 124.553 48.8769 124.721 48.6443C129.02 42.9158 137.003 40.7712 143.923 41.2946C152.067 41.9053 160.298 45.7873 168.522 43.4319C171.627 42.545 174.315 40.8366 176.709 38.7357L177.083 38.6703C176.958 39.9134 176.248 41.171 175.582 42.2252C172.506 47.074 166.274 51.0578 160.437 51.3268C151.51 51.7339 144.333 45.3366 135.15 48.2663C130.36 49.7929 126.618 53.2897 124.941 58.015C124.355 59.6725 124.07 61.7952 123.93 63.5399C123.879 64.1797 123.967 65.0084 123.865 65.6336C123.799 66.0553 123.176 66.3824 122.832 66.586C122.056 67.0512 120.987 67.6037 120.152 67.9454C120.027 67.9963 119.515 68.2071 119.427 68.2144C118.877 68.2289 119.075 66.8767 119.06 66.506C118.797 61.5262 118.577 57.1862 115.238 53.217C111.356 48.6007 105.578 46.8414 99.6538 47.6556C91.7959 48.7315 85.344 53.4132 77.1786 50.2436C72.6674 48.4916 68.0098 44.7114 66.3108 40.1024C66.2083 39.8261 65.6737 38.5758 66.2156 38.6121C66.4646 38.6266 67.8414 39.8261 68.1709 40.0588C72.499 43.192 77.7351 44.5515 83.0811 44.1516C86.7721 43.8754 90.2433 42.5305 93.861 41.8471C101.609 40.3786 110.031 40.8439 116.029 46.4634Z" fill="url(#paint0_linear_357_16798)" style="mix-blend-mode:multiply"/>
<path d="M96.9955 66.4705C96.8929 66.3542 96.9588 66.2233 97.076 66.1434C100.152 65.1183 103.191 63.4318 105.498 61.1491C105.534 61.1127 106.01 60.6111 105.761 60.5966C103.909 61.6943 102.07 62.7339 100.005 63.3954C96.3583 64.5658 92.1767 64.4931 88.6542 62.9374C88.354 62.8066 86.5891 61.9633 86.6403 61.6798C86.7062 61.578 86.8014 61.5126 86.9113 61.4835C87.6363 61.2872 88.786 61.2872 89.5843 61.1636C92.0742 60.7638 94.6886 59.9786 97.0321 59.0481C98.2111 58.5829 100.13 57.7977 101.053 56.9763C101.089 56.9399 101.448 56.6418 101.228 56.6273C99.9174 57.0489 98.6505 57.6233 97.3177 57.994C93.1068 59.1717 88.3174 59.3098 84.1138 58.0376C81.514 57.2525 77.6913 55.406 75.7579 53.5013C75.4284 53.1742 75.1354 52.8543 75.8458 52.8834C77.4569 52.9634 79.1779 53.3923 80.8403 53.2396C88.9838 53.2396 96.0874 48.6088 104.216 48.6815C104.509 48.6815 104.912 48.7397 105.036 49.0377C105.198 49.4085 105.278 50.0409 105.417 50.4699C106.355 53.3923 108.325 55.8713 110.807 57.6596C111.115 57.885 112.755 58.8518 112.814 59.0554C112.836 59.1281 112.836 59.1935 112.814 59.2662C112.77 59.4116 111.547 60.5093 111.327 60.7638C110.236 62.0142 109.613 63.5408 109.211 65.1329C108.998 65.4673 108.244 65.7871 107.871 65.9616C104.773 67.3792 101.236 68.0771 97.9328 66.8849C97.7571 66.8194 97.076 66.5577 96.9808 66.456L96.9955 66.4705Z" fill="#102F4B"/>
<path d="M166.113 53.4281C166.253 53.5444 165.388 54.0751 165.323 54.126C165.015 54.3731 164.744 54.693 164.407 54.9038C164.122 55.0783 163.807 55.1219 163.55 55.2746C162.957 55.6235 162.415 56.0961 161.727 56.4377C156.806 58.8513 151.145 59.3093 145.857 57.8844C144.473 57.5137 143.14 56.8739 141.793 56.4959C141.588 56.4377 141.383 56.3723 141.163 56.3941C141.031 56.5032 141.807 57.0193 141.873 57.0629C145.821 59.6146 150.581 60.5597 155.077 61.621C155.209 61.6501 155.348 61.6792 155.436 61.7883C155.48 61.9773 154.294 62.508 154.081 62.6025C149.27 64.6743 143.953 64.2309 139.398 61.7883C138.563 61.3375 137.78 60.7705 136.93 60.3561C136.908 60.4652 136.996 60.4942 137.047 60.5597C137.186 60.7269 137.413 60.9304 137.575 61.0831C139.647 63.0023 142.203 64.3327 144.568 65.8593C144.737 66.1573 144.568 66.2228 144.327 66.3318C142.181 67.2623 138.907 67.037 136.828 66.0192C134.396 64.827 133.745 63.1259 132.17 61.1994C131.665 60.5815 130.881 60.0072 130.434 59.4183C130.339 59.2947 130.259 59.2293 130.31 59.0694C130.376 58.844 131.189 58.4151 131.423 58.2406C133.92 56.4305 135.553 54.395 136.718 51.5452C136.923 51.0509 137.435 49.2698 137.75 49.0154C137.963 48.8409 138.761 48.7827 139.069 48.7537C142.657 48.4265 145.169 49.5606 148.45 50.5784C153.539 52.1559 158.863 53.8788 164.268 53.5953C164.524 53.5807 166.033 53.3481 166.113 53.4208V53.4281Z" fill="#102F4B"/>
<path d="M126.619 58.4589C126.809 58.4371 127.454 58.8079 127.659 58.9242C131.884 61.3523 134.015 65.6923 129.87 69.4944C126.377 72.7076 120.131 74.714 115.788 76.7423C113.818 77.6655 108.882 79.7083 110.552 82.5435C112.126 85.2187 116.374 86.8108 118.981 88.2866C119.332 88.4828 120.16 88.8463 119.64 89.2534C119.039 89.726 117.897 90.2058 117.179 90.6637C116.842 90.8746 115.986 91.5943 115.678 91.6234C115.539 91.6379 115.436 91.6088 115.304 91.5797C114.858 91.478 113.862 90.9473 113.415 90.7146C109.343 88.6355 103.272 84.4481 105.132 79.1122C107.036 73.6381 115.136 71.6607 120.013 69.8578C123.067 68.731 129.307 66.2157 127.468 61.9048C127.132 61.1124 126.516 60.8143 126.106 60.2255C125.857 59.862 126.18 58.5025 126.612 58.4589H126.619Z" fill="#102F4B"/>
<path d="M118.885 104.97C118.644 105.203 116.564 103.873 116.249 103.655C113.1 101.459 111.635 98.8856 113.708 95.2508C114.975 93.0262 117.018 91.7177 119.237 90.54C123.089 88.4827 127.388 87.116 130.749 84.2444C132.565 82.696 133.561 81.2929 131.716 79.1993C129.79 77.0183 126.817 75.7171 124.305 74.3722C123.887 74.1468 123.953 74.0014 124.327 73.7324C124.883 73.3326 125.85 72.911 126.48 72.5475C126.868 72.3221 128.113 71.4497 128.435 71.3989C128.999 71.3116 129.87 71.806 130.383 72.0822C134.96 74.5903 140.035 78.6904 136.952 84.4553C134.565 88.9189 129.109 90.8671 124.62 92.5028C121.72 93.5569 117.897 94.4584 115.897 96.9664C113.62 99.8234 116.073 102.142 118.094 104.105C118.204 104.207 119.039 104.832 118.885 104.978V104.97Z" fill="#102F4B"/>
<path d="M120.284 25.6359C128.691 25.127 137.399 30.1649 140.628 37.9362C140.716 38.1398 140.943 38.5978 140.826 38.7941C140.702 39.0049 139.515 38.954 139.237 38.9685C138.863 38.9903 138.329 39.1866 137.999 38.9685C137.743 38.8013 137.106 37.5291 136.879 37.1656C129.27 25.2215 112.609 25.8176 105.498 37.8999C105.249 38.3215 105.169 38.9176 104.576 38.9685C104.173 39.0049 102.496 39.0121 102.196 38.874C102.137 38.8449 102.086 38.7795 102.049 38.7286C101.969 38.5469 102.166 38.1834 102.247 37.9944C105.008 31.0373 112.888 26.0793 120.284 25.6359Z" fill="#102F4B"/>
<path d="M120.877 34.3818C125.139 34.1128 127.951 38.1766 126.662 42.1095C125.564 45.4536 121.148 47.0529 118.167 45.0828C113.605 42.0732 115.282 34.738 120.877 34.3818Z" fill="#102F4B"/>
<path d="M116.265 67.5172C116.755 67.997 117.371 68.3532 117.913 68.7676C118.169 69.0729 117.854 69.2474 117.59 69.3782C116.799 69.7635 115.796 70.0979 114.969 70.4469C114.456 70.665 113.548 71.1884 113.072 71.3047C112.405 71.4646 112.12 71.123 111.724 70.6577C108.502 66.9429 110.392 62.4066 113.87 59.7313C114.302 59.3969 115.437 58.6045 115.913 58.4373C116.089 58.3719 116.294 58.3501 116.463 58.4446C116.69 58.5754 116.939 59.6659 116.887 59.9203C116.829 60.1966 115.95 61.0326 115.716 61.3816C114.383 63.3516 114.566 65.8597 116.279 67.5245L116.265 67.5172Z" fill="#102F4B"/>
<path d="M123.338 74.2565C123.455 74.2347 123.653 74.1984 123.697 74.3365C123.712 75.3252 123.646 76.3139 123.587 77.3025C123.419 79.9196 123.214 82.5585 123.001 85.1756C122.95 85.8517 122.972 86.6078 122.877 87.2693C122.833 87.5674 122.738 87.8582 122.467 88.0326C122.254 88.1708 121.2 88.6069 120.98 88.5851C120.819 88.5706 120.262 88.2653 120.123 88.1489C119.896 87.9672 119.816 87.7855 119.779 87.5019C119.427 84.9866 119.713 82.3477 119.362 79.8179C119.464 78.7419 119.178 77.5134 119.274 76.4592C119.296 76.1975 119.413 76.0667 119.618 75.9286C120.606 75.267 122.276 74.8817 123.345 74.2638L123.338 74.2565Z" fill="url(#paint1_linear_357_16798)" style="mix-blend-mode:multiply"/>
<path d="M123.939 104.971C123.924 104.862 123.961 104.767 124.027 104.68C124.298 104.353 124.942 103.924 125.287 103.597C127.974 101.045 129.431 98.4354 125.865 95.7893C125.389 95.4403 123.602 94.4516 123.419 94.0809C123.133 93.5066 123.91 93.303 124.327 93.1431C124.935 92.9105 125.828 92.6197 126.458 92.4597C126.934 92.3434 127.11 92.3216 127.52 92.6342C128.626 93.4848 130.069 96.5671 130.164 97.9411C130.325 100.406 128.509 102.368 126.597 103.67C125.806 104.208 124.884 104.767 123.939 104.964V104.971Z" fill="#102F4B"/>
<path d="M121.353 110.503C121.133 110.343 120.98 107.435 120.943 106.977C120.628 103.4 120.299 99.7146 120.123 96.1306C120.093 95.5999 119.969 94.8439 120.474 94.5531C120.701 94.4223 122.137 93.8698 122.327 93.877C122.517 93.8843 122.613 94.0224 122.649 94.2042C122.737 94.7494 122.627 95.8689 122.591 96.4723C122.378 100.274 122.071 104.106 121.771 107.9C121.712 108.605 121.792 109.594 121.565 110.263C121.529 110.372 121.514 110.517 121.36 110.496L121.353 110.503Z" fill="url(#paint2_linear_357_16798)" style="mix-blend-mode:multiply"/>
<path fill-rule="evenodd" clip-rule="evenodd" d="M118.138 39.2517C118.138 39.2517 118.138 39.2808 118.138 39.2881C118.138 39.3317 118.167 39.368 118.219 39.3971C118.27 39.4189 118.358 39.4335 118.475 39.4335C118.563 39.4335 118.629 39.4262 118.68 39.4044C118.731 39.3826 118.753 39.3608 118.753 39.3244C118.753 39.2735 118.658 39.2372 118.46 39.2081C118.438 39.2081 118.416 39.2008 118.409 39.2008C118.394 39.2008 118.38 39.2008 118.358 39.1936C118.05 39.1427 117.853 39.0918 117.765 39.0336C117.721 39.0045 117.691 38.9682 117.669 38.9318C117.647 38.8955 117.633 38.8519 117.633 38.801C117.633 38.6847 117.706 38.5902 117.845 38.532C117.984 38.4738 118.197 38.4375 118.46 38.4375C118.724 38.4375 118.929 38.4666 119.061 38.5247C119.193 38.5829 119.259 38.6701 119.259 38.7937V38.8083H118.746C118.746 38.7646 118.724 38.7283 118.665 38.7065C118.614 38.6847 118.534 38.6701 118.438 38.6701C118.358 38.6701 118.299 38.6774 118.263 38.6919C118.226 38.7065 118.197 38.7283 118.197 38.7574C118.197 38.8083 118.307 38.8519 118.526 38.8882C118.57 38.8955 118.599 38.9028 118.629 38.9028C118.79 38.9246 118.9 38.9536 118.966 38.9682C119.032 38.99 119.09 39.0118 119.141 39.0336C119.193 39.0627 119.237 39.099 119.266 39.1427C119.295 39.1863 119.31 39.2372 119.31 39.2881C119.31 39.4116 119.229 39.5061 119.076 39.5716C118.922 39.637 118.702 39.6734 118.409 39.6734C118.116 39.6734 117.918 39.637 117.794 39.5788C117.662 39.5134 117.604 39.4116 117.604 39.2735V39.259H118.145L118.138 39.2517ZM119.53 39.6515V38.4448H120.98V38.7065H120.071V38.9028H120.906V39.1572H120.071V39.3898H121.016V39.6515H119.53ZM121.243 39.6515V38.4448H121.932L122.671 39.259V38.4448H123.191V39.6588H122.474L121.763 38.8446V39.6588H121.243V39.6515ZM124.605 39.1645L124.341 38.721L124.07 39.1645H124.605ZM123.77 39.6515H123.22L124.063 38.4375H124.67L125.476 39.6515H124.868L124.744 39.4335H123.894L123.762 39.6515H123.77Z" fill="white"/>
<path fill-rule="evenodd" clip-rule="evenodd" d="M118.9 43.9118L118.417 43.461L119.896 40.9094C119.977 40.7712 119.874 40.5968 119.713 40.5968H117.289V39.957H121.192L118.9 43.9118Z" fill="white"/>
<path fill-rule="evenodd" clip-rule="evenodd" d="M124.173 43.9118L124.656 43.461L123.177 40.9094C123.097 40.7712 123.199 40.5968 123.36 40.5968H125.784V39.957H121.881L124.166 43.919L124.173 43.9118Z" fill="white"/>
<path fill-rule="evenodd" clip-rule="evenodd" d="M121.516 40.626L123.713 44.2318L123.127 44.5298L121.714 42.1744C121.633 42.0363 121.428 42.0363 121.347 42.1744C120.871 42.9668 119.941 44.5298 119.941 44.5298L119.37 44.2463C119.37 44.2463 121.399 40.8223 121.516 40.626Z" fill="white"/>
<path d="M121.545 38.1105C122.046 38.1105 122.453 37.7069 122.453 37.2091C122.453 36.7112 122.046 36.3076 121.545 36.3076C121.043 36.3076 120.637 36.7112 120.637 37.2091C120.637 37.7069 121.043 38.1105 121.545 38.1105Z" fill="white"/>
</g>
<defs>
<linearGradient id="paint0_linear_357_16798" x1="65.9813" y1="53.4205" x2="177.098" y2="53.4205" gradientUnits="userSpaceOnUse">
<stop stop-color="#5EA9B9"/>
<stop offset="0.23" stop-color="#60ADBE"/>
<stop offset="0.52" stop-color="#68BBCD"/>
<stop offset="0.83" stop-color="#74D2E5"/>
<stop offset="1" stop-color="#7DE2F6"/>
</linearGradient>
<linearGradient id="paint1_linear_357_16798" x1="119.244" y1="81.4099" x2="123.697" y2="81.4099" gradientUnits="userSpaceOnUse">
<stop stop-color="#5EA9B9"/>
<stop offset="0.23" stop-color="#60ADBE"/>
<stop offset="0.52" stop-color="#68BBCD"/>
<stop offset="0.83" stop-color="#74D2E5"/>
<stop offset="1" stop-color="#7DE2F6"/>
</linearGradient>
<linearGradient id="paint2_linear_357_16798" x1="120.086" y1="102.194" x2="122.679" y2="102.194" gradientUnits="userSpaceOnUse">
<stop stop-color="#5EA9B9"/>
<stop offset="0.23" stop-color="#60ADBE"/>
<stop offset="0.52" stop-color="#68BBCD"/>
<stop offset="0.83" stop-color="#74D2E5"/>
<stop offset="1" stop-color="#7DE2F6"/>
</linearGradient>
<clipPath id="clip0_357_16798">
<rect width="247" height="149" fill="white" transform="translate(0 25.5996)"/>
</clipPath>
</defs>
</svg>
