<svg width="58" height="45" viewBox="0 0 58 45" fill="none" xmlns="http://www.w3.org/2000/svg">
<path d="M26.0101 10.922C26.4173 11.3064 26.7331 11.6603 27.0604 12.1132C27.2317 12.3491 27.3496 12.6269 27.5704 12.8248C27.6617 12.8248 27.5856 12.4633 27.5704 12.3986C27.5247 12.1588 27.4219 11.8544 27.342 11.6184C27.2964 11.489 27.1023 11.1541 27.1327 11.0476C27.1441 11.0209 27.1632 10.9943 27.1898 10.9791C27.2925 10.9258 27.7416 11.1275 27.89 11.1618C28.4647 11.295 29.0279 11.2988 29.5988 11.1618C29.751 11.1237 30.3599 10.8839 30.4474 10.9372C30.4779 10.9867 30.474 11.0248 30.4626 11.078C30.4208 11.2645 30.2191 11.5842 30.1468 11.8011C30.0935 11.9609 29.9298 12.4899 30.0212 12.6231L30.0973 12.6421C30.2115 12.6193 30.4398 12.1855 30.5273 12.0637C32.7612 9.06486 36.9094 7.9422 40.5057 8.2162C44.7375 8.53588 49.015 10.5681 53.2887 9.33506C54.9023 8.87077 56.299 7.97645 57.5434 6.87663L57.7375 6.84237C57.6728 7.49314 57.3037 8.15151 56.9574 8.70332C55.359 11.2417 52.1204 13.3272 49.0873 13.468C44.4483 13.6811 40.7188 10.3321 35.9465 11.8658C33.4577 12.665 31.513 14.4955 30.6415 16.9691C30.337 17.8368 30.1886 18.9481 30.1163 19.8614C30.0897 20.1963 30.1353 20.6301 30.0821 20.9574C30.0478 21.1781 29.7243 21.3494 29.5455 21.456C29.1421 21.6995 28.5865 21.9887 28.1526 22.1676C28.0879 22.1942 27.8215 22.3046 27.7759 22.3084C27.4904 22.316 27.5932 21.6082 27.5856 21.4141C27.4486 18.8072 27.3344 16.5353 25.599 14.4574C23.5821 12.0409 20.5794 11.1199 17.5007 11.5461C13.4173 12.1094 10.0645 14.5602 5.82123 12.9009C3.47697 11.9838 1.0566 10.0048 0.173695 7.59208C0.120416 7.44747 -0.157396 6.7929 0.12422 6.81193C0.253611 6.81954 0.969067 7.44747 1.14032 7.56925C3.38944 9.20947 6.11046 9.92112 8.88856 9.71181C10.8066 9.5672 12.6105 8.86316 14.4904 8.50543C18.5168 7.7367 22.8933 7.98026 26.0101 10.922Z" fill="url(#paint0_linear_360_23691)" style="mix-blend-mode:multiply"/>
<path d="M16.1194 21.3948C16.0661 21.3339 16.1004 21.2654 16.1613 21.2236C17.7596 20.687 19.339 19.8041 20.5377 18.6091C20.5567 18.5901 20.8041 18.3275 20.6747 18.3199C19.7119 18.8945 18.7567 19.4387 17.6835 19.7851C15.7883 20.3978 13.6153 20.3597 11.7848 19.5453C11.6288 19.4768 10.7116 19.0353 10.7382 18.8869C10.7725 18.8336 10.822 18.7994 10.8791 18.7842C11.2558 18.6814 11.8533 18.6814 12.2681 18.6167C13.562 18.4074 14.9206 17.9964 16.1384 17.5093C16.7511 17.2657 17.7482 16.8547 18.2277 16.4247C18.2467 16.4057 18.4332 16.2496 18.319 16.242C17.6378 16.4627 16.9795 16.7634 16.2868 16.9575C14.0986 17.574 11.6097 17.6463 9.42531 16.9803C8.07431 16.5693 6.08778 15.6027 5.0831 14.6056C4.91184 14.4343 4.75962 14.2669 5.12876 14.2821C5.966 14.324 6.86032 14.5485 7.7242 14.4686C11.956 14.4686 15.6475 12.0444 19.8717 12.0825C20.024 12.0825 20.2333 12.1129 20.298 12.269C20.3817 12.463 20.4236 12.7941 20.4959 13.0187C20.983 14.5485 22.0067 15.8462 23.2968 16.7824C23.4566 16.9004 24.3091 17.4065 24.3395 17.5131C24.351 17.5512 24.351 17.5854 24.3395 17.6235C24.3167 17.6996 23.6812 18.2742 23.567 18.4074C23 19.062 22.6765 19.8612 22.4672 20.6946C22.3568 20.8697 21.9648 21.0371 21.7707 21.1284C20.161 21.8705 18.3228 22.2359 16.6065 21.6117C16.5152 21.5775 16.1613 21.4405 16.1118 21.3872L16.1194 21.3948Z" fill="#102F4B"/>
<path d="M52.0368 14.5679C52.1091 14.6288 51.6601 14.9066 51.6258 14.9332C51.466 15.0626 51.3252 15.23 51.1501 15.3404C51.0017 15.4317 50.838 15.4546 50.7049 15.5345C50.3966 15.7172 50.115 15.9645 49.7572 16.1434C47.1999 17.4069 44.2581 17.6466 41.5105 16.9007C40.7912 16.7066 40.0986 16.3717 39.3983 16.1738C39.2918 16.1434 39.1852 16.1091 39.0711 16.1206C39.0026 16.1776 39.406 16.4478 39.4402 16.4707C41.4914 17.8064 43.9651 18.3012 46.3017 18.8568C46.3702 18.872 46.4426 18.8872 46.4882 18.9443C46.5111 19.0433 45.8945 19.3211 45.7842 19.3706C43.2839 20.4552 40.521 20.223 38.1539 18.9443C37.7201 18.7084 37.3129 18.4115 36.8714 18.1946C36.86 18.2517 36.9057 18.2669 36.9323 18.3012C37.0046 18.3887 37.1226 18.4953 37.2063 18.5752C38.2833 19.5799 39.6115 20.2763 40.8407 21.0755C40.9282 21.2315 40.8407 21.2658 40.7151 21.3228C39.6 21.81 37.8989 21.692 36.8181 21.1592C35.5547 20.5351 35.216 19.6446 34.3978 18.6361C34.1352 18.3126 33.728 18.012 33.4958 17.7037C33.4464 17.639 33.4045 17.6048 33.4311 17.521C33.4654 17.4031 33.8878 17.1785 34.0096 17.0872C35.3073 16.1396 36.156 15.074 36.7611 13.5822C36.8676 13.3234 37.134 12.3911 37.2977 12.2579C37.408 12.1665 37.8228 12.1361 37.9827 12.1209C39.8474 11.9496 41.1527 12.5433 42.8577 13.0761C45.5026 13.9019 48.2693 14.8038 51.0778 14.6554C51.211 14.6478 51.995 14.526 52.0368 14.5641V14.5679Z" fill="#102F4B"/>
<path d="M31.5131 17.2007C31.612 17.1893 31.9469 17.3833 32.0535 17.4442C34.2493 18.7153 35.3568 20.9873 33.2028 22.9776C31.3875 24.6597 28.1413 25.71 25.8846 26.7718C24.8609 27.2551 22.2959 28.3245 23.1636 29.8087C23.9818 31.2092 26.189 32.0426 27.5438 32.8151C27.7265 32.9179 28.1565 33.1082 27.8863 33.3213C27.5743 33.5687 26.9806 33.8198 26.6076 34.0596C26.4326 34.1699 25.9873 34.5467 25.8275 34.5619C25.7552 34.5695 25.7019 34.5543 25.6334 34.5391C25.4013 34.4858 24.8837 34.208 24.6516 34.0862C22.5356 32.9978 19.3808 30.8058 20.3474 28.0124C21.3369 25.1468 25.5459 24.1117 28.0804 23.1679C29.6674 22.578 32.9098 21.2613 31.9545 19.0045C31.7795 18.5897 31.4598 18.4337 31.2467 18.1254C31.1173 17.9352 31.2848 17.2235 31.5093 17.2007H31.5131Z" fill="#102F4B"/>
<path d="M27.4941 41.5494C27.3685 41.6712 26.2877 40.9748 26.1241 40.8606C24.4877 39.7113 23.7265 38.3641 24.8035 36.4613C25.4619 35.2968 26.5237 34.6118 27.6768 33.9953C29.6785 32.9183 31.9124 32.2028 33.6592 30.6996C34.603 29.889 35.1206 29.1545 34.1615 28.0585C33.1607 26.9168 31.6156 26.2356 30.3103 25.5316C30.0933 25.4136 30.1276 25.3375 30.3217 25.1967C30.6109 24.9874 31.1132 24.7666 31.4405 24.5763C31.6422 24.4584 32.2892 24.0017 32.4566 23.9751C32.7497 23.9294 33.2025 24.1882 33.4689 24.3328C35.8474 25.6457 38.4847 27.7921 36.8826 30.81C35.6419 33.1466 32.8067 34.1665 30.4739 35.0228C28.9669 35.5746 26.9803 36.0465 25.9414 37.3594C24.7579 38.855 26.0327 40.069 27.0831 41.0965C27.1402 41.1498 27.574 41.4771 27.4941 41.5532V41.5494Z" fill="#102F4B"/>
<path d="M28.2212 0.0184745C32.59 -0.247919 37.1149 2.38938 38.7932 6.45758C38.8389 6.56414 38.9568 6.8039 38.8959 6.90665C38.8312 7.01701 38.2147 6.99037 38.0701 6.99798C37.876 7.0094 37.5982 7.11215 37.427 6.99798C37.2938 6.91045 36.9627 6.24447 36.8447 6.05419C32.8907 -0.198446 24.2329 0.113614 20.5376 6.43856C20.4082 6.65928 20.3664 6.97134 20.0581 6.99798C19.8488 7.01701 18.9773 7.02082 18.8213 6.94851C18.7909 6.93329 18.7642 6.89904 18.7452 6.8724C18.7033 6.77726 18.8061 6.58697 18.8479 6.48803C20.2827 2.84605 24.3775 0.250617 28.2212 0.0184745Z" fill="#102F4B"/>
<path d="M28.5291 4.59647C30.744 4.45566 32.2054 6.58301 31.5356 8.64185C30.9648 10.3924 28.67 11.2297 27.1211 10.1983C24.7502 8.62282 25.6217 4.78295 28.5291 4.59647Z" fill="#102F4B"/>
<path d="M26.1317 21.9429C26.3866 22.1941 26.7063 22.3806 26.9879 22.5975C27.1211 22.7573 26.9575 22.8487 26.8205 22.9172C26.4095 23.1189 25.8881 23.2939 25.4581 23.4766C25.1917 23.5908 24.7198 23.8648 24.4724 23.9257C24.1261 24.0094 23.9777 23.8305 23.7722 23.587C22.0977 21.6423 23.0796 19.2676 24.8872 17.8671C25.1118 17.6921 25.7016 17.2772 25.949 17.1897C26.0403 17.1555 26.1469 17.144 26.2344 17.1935C26.3524 17.262 26.4818 17.8329 26.4552 17.9661C26.4247 18.1107 25.968 18.5483 25.8463 18.731C25.1536 19.7623 25.2488 21.0753 26.1393 21.9467L26.1317 21.9429Z" fill="#102F4B"/>
<path d="M29.8079 25.4701C29.8688 25.4587 29.9716 25.4396 29.9944 25.5119C30.002 26.0295 29.9678 26.5471 29.9373 27.0646C29.8498 28.4346 29.7432 29.8161 29.6329 31.1861C29.6062 31.54 29.6176 31.9358 29.5682 32.2821C29.5453 32.4382 29.4959 32.5904 29.3551 32.6817C29.2447 32.754 28.6967 32.9824 28.5825 32.9709C28.4988 32.9633 28.2096 32.8035 28.1373 32.7426C28.0193 32.6475 27.9774 32.5523 27.9584 32.4039C27.7757 31.0872 27.9241 29.7057 27.7415 28.3814C27.7948 27.8181 27.6463 27.175 27.6958 26.6232C27.7072 26.4862 27.7681 26.4177 27.8747 26.3454C28.3884 25.9991 29.2561 25.7974 29.8117 25.4739L29.8079 25.4701Z" fill="url(#paint1_linear_360_23691)" style="mix-blend-mode:multiply"/>
<path d="M30.1196 41.5488C30.112 41.4917 30.131 41.4422 30.1653 41.3965C30.3061 41.2253 30.641 41.0008 30.8199 40.8295C32.2165 39.4937 32.9738 38.1275 31.1205 36.7423C30.8731 36.5596 29.9446 36.042 29.8494 35.848C29.701 35.5473 30.1044 35.4408 30.3213 35.357C30.6372 35.2353 31.1015 35.083 31.4287 34.9993C31.6761 34.9384 31.7675 34.927 31.9806 35.0906C32.5552 35.5359 33.3049 37.1495 33.3544 37.8687C33.4381 39.1588 32.4943 40.1864 31.5011 40.8676C31.09 41.1492 30.6105 41.4422 30.1196 41.545V41.5488Z" fill="#102F4B"/>
<path d="M28.7766 44.4457C28.6625 44.362 28.5825 42.8397 28.5635 42.6C28.3999 40.7276 28.2286 38.7981 28.1373 36.922C28.1221 36.6442 28.0574 36.2484 28.3199 36.0961C28.4379 36.0276 29.1838 35.7384 29.2828 35.7422C29.3817 35.746 29.4312 35.8183 29.4502 35.9135C29.4959 36.1989 29.4388 36.785 29.4198 37.1008C29.3094 39.0912 29.1496 41.0967 28.9935 43.0833C28.9631 43.4524 29.005 43.97 28.887 44.3201C28.868 44.3772 28.8603 44.4533 28.7804 44.4419L28.7766 44.4457Z" fill="url(#paint2_linear_360_23691)" style="mix-blend-mode:multiply"/>
<path fill-rule="evenodd" clip-rule="evenodd" d="M27.1069 7.14693C27.1069 7.14693 27.1069 7.16216 27.1069 7.16596C27.1069 7.18879 27.1221 7.20782 27.1488 7.22304C27.1754 7.23446 27.2211 7.24207 27.282 7.24207C27.3276 7.24207 27.3619 7.23827 27.3885 7.22685C27.4152 7.21543 27.4266 7.20402 27.4266 7.18499C27.4266 7.15835 27.3771 7.13932 27.2744 7.1241C27.2629 7.1241 27.2515 7.12029 27.2477 7.12029C27.2401 7.12029 27.2325 7.12029 27.2211 7.11649C27.0612 7.08985 26.9585 7.06321 26.9128 7.03276C26.89 7.01754 26.8748 6.99851 26.8634 6.97949C26.8519 6.96046 26.8443 6.93762 26.8443 6.91098C26.8443 6.85009 26.8824 6.80062 26.9547 6.77018C27.027 6.73973 27.1374 6.7207 27.2744 6.7207C27.4114 6.7207 27.5179 6.73593 27.5864 6.76637C27.6549 6.79682 27.6892 6.84248 27.6892 6.90718V6.91479H27.4228C27.4228 6.89196 27.4114 6.87293 27.3809 6.86151C27.3543 6.85009 27.3124 6.84248 27.2629 6.84248C27.2211 6.84248 27.1906 6.84629 27.1716 6.8539C27.1526 6.86151 27.1374 6.87293 27.1374 6.88815C27.1374 6.91479 27.1944 6.93762 27.3086 6.95665C27.3314 6.96046 27.3467 6.96426 27.3619 6.96426C27.4456 6.97568 27.5027 6.9909 27.5369 6.99851C27.5712 7.00993 27.6016 7.02135 27.6283 7.03276C27.6549 7.04799 27.6778 7.06701 27.693 7.08985C27.7082 7.11268 27.7158 7.13932 27.7158 7.16596C27.7158 7.23066 27.674 7.28013 27.594 7.31438C27.5141 7.34863 27.3999 7.36766 27.2477 7.36766C27.0955 7.36766 26.9927 7.34863 26.9281 7.31819C26.8596 7.28393 26.8291 7.23066 26.8291 7.15835V7.15074H27.1107L27.1069 7.14693ZM27.83 7.35624V6.72451H28.5835V6.86151H28.1116V6.96426H28.5454V7.09746H28.1116V7.21924H28.6025V7.35624H27.83ZM28.7205 7.35624V6.72451H29.0782L29.4626 7.15074V6.72451H29.7328V7.36005H29.3598L28.9907 6.93382V7.36005H28.7205V7.35624ZM30.4673 7.10127L30.3303 6.86912L30.1895 7.10127H30.4673ZM30.0334 7.35624H29.748L30.1857 6.7207H30.5015L30.9201 7.35624H30.6043L30.5396 7.24207H30.0981L30.0296 7.35624H30.0334Z" fill="white"/>
<path fill-rule="evenodd" clip-rule="evenodd" d="M27.5023 9.58588L27.2511 9.34993L28.0198 8.01416C28.0617 7.94185 28.0084 7.85052 27.9247 7.85052H26.665V7.51562H28.6934L27.5023 9.58588Z" fill="white"/>
<path fill-rule="evenodd" clip-rule="evenodd" d="M30.2419 9.58588L30.4931 9.34993L29.7244 8.01416C29.6825 7.94185 29.7358 7.85052 29.8195 7.85052H31.0792V7.51562H29.0508L30.2381 9.58969L30.2419 9.58588Z" fill="white"/>
<path fill-rule="evenodd" clip-rule="evenodd" d="M28.8611 7.86621L30.0028 9.7538L29.6984 9.90983L28.9639 8.67681C28.922 8.6045 28.8155 8.6045 28.7736 8.67681C28.5262 9.09162 28.0429 9.90983 28.0429 9.90983L27.7461 9.76141C27.7461 9.76141 28.8002 7.96896 28.8611 7.86621Z" fill="white"/>
<path d="M28.8762 6.54926C29.1368 6.54926 29.3481 6.33799 29.3481 6.07737C29.3481 5.81674 29.1368 5.60547 28.8762 5.60547C28.6156 5.60547 28.4043 5.81674 28.4043 6.07737C28.4043 6.33799 28.6156 6.54926 28.8762 6.54926Z" fill="white"/>
<defs>
<linearGradient id="paint0_linear_360_23691" x1="0.00244084" y1="14.564" x2="57.7451" y2="14.564" gradientUnits="userSpaceOnUse">
<stop stop-color="#5EA9B9"/>
<stop offset="0.23" stop-color="#60ADBE"/>
<stop offset="0.52" stop-color="#68BBCD"/>
<stop offset="0.83" stop-color="#74D2E5"/>
<stop offset="1" stop-color="#7DE2F6"/>
</linearGradient>
<linearGradient id="paint1_linear_360_23691" x1="27.6806" y1="29.2148" x2="29.9944" y2="29.2148" gradientUnits="userSpaceOnUse">
<stop stop-color="#5EA9B9"/>
<stop offset="0.23" stop-color="#60ADBE"/>
<stop offset="0.52" stop-color="#68BBCD"/>
<stop offset="0.83" stop-color="#74D2E5"/>
<stop offset="1" stop-color="#7DE2F6"/>
</linearGradient>
<linearGradient id="paint2_linear_360_23691" x1="28.1182" y1="40.0959" x2="29.4654" y2="40.0959" gradientUnits="userSpaceOnUse">
<stop stop-color="#5EA9B9"/>
<stop offset="0.23" stop-color="#60ADBE"/>
<stop offset="0.52" stop-color="#68BBCD"/>
<stop offset="0.83" stop-color="#74D2E5"/>
<stop offset="1" stop-color="#7DE2F6"/>
</linearGradient>
</defs>
</svg>
