<svg width="24" height="24" viewBox="0 0 24 24" fill="none" xmlns="http://www.w3.org/2000/svg">
<mask id="path-1-inside-1_357_16949" fill="white">
<path d="M0 12C0 5.37258 5.37258 0 12 0C18.6274 0 24 5.37258 24 12C24 18.6274 18.6274 24 12 24C5.37258 24 0 18.6274 0 12Z"/>
</mask>
<path d="M0 12C0 5.37258 5.37258 0 12 0C18.6274 0 24 5.37258 24 12C24 18.6274 18.6274 24 12 24C5.37258 24 0 18.6274 0 12Z" fill="url(#paint0_linear_357_16949)"/>
<g clip-path="url(#paint1_angular_357_16949_clip_path)" data-figma-skip-parse="true" mask="url(#path-1-inside-1_357_16949)"><g transform="matrix(-0.0026875 0.028308 -0.0135938 -0.00559653 19.1563 -1.57484)"><foreignObject x="-1438.62" y="-1438.62" width="2877.25" height="2877.25"><div xmlns="http://www.w3.org/1999/xhtml" style="background:conic-gradient(from 90deg,rgba(226, 231, 245, 1) 0deg,rgba(236, 239, 248, 1) 16.5319deg,rgba(194, 211, 243, 1) 76.2506deg,rgba(170, 185, 229, 1) 273.462deg,rgba(226, 231, 245, 1) 360deg);height:100%;width:100%;opacity:1"></div></foreignObject></g></g><path d="M0 12M24 12M24 12M0 12M12 0M24 12M12 24M0 12M12 24V22.8C6.03533 22.8 1.2 17.9647 1.2 12H0H-1.2C-1.2 19.2902 4.70984 25.2 12 25.2V24ZM24 12H22.8C22.8 17.9647 17.9647 22.8 12 22.8V24V25.2C19.2902 25.2 25.2 19.2902 25.2 12H24ZM12 0V1.2C17.9647 1.2 22.8 6.03533 22.8 12H24H25.2C25.2 4.70984 19.2902 -1.2 12 -1.2V0ZM12 0V-1.2C4.70984 -1.2 -1.2 4.70984 -1.2 12H0H1.2C1.2 6.03533 6.03533 1.2 12 1.2V0Z" data-figma-gradient-fill="{&#34;type&#34;:&#34;GRADIENT_ANGULAR&#34;,&#34;stops&#34;:[{&#34;color&#34;:{&#34;r&#34;:0.92902123928070068,&#34;g&#34;:0.94035726785659790,&#34;b&#34;:0.9743652343750,&#34;a&#34;:1.0},&#34;position&#34;:0.045921899378299713},{&#34;color&#34;:{&#34;r&#34;:0.76169997453689575,&#34;g&#34;:0.82875138521194458,&#34;b&#34;:0.95327526330947876,&#34;a&#34;:1.0},&#34;position&#34;:0.21180714666843414},{&#34;color&#34;:{&#34;r&#34;:0.66892701387405396,&#34;g&#34;:0.72677886486053467,&#34;b&#34;:0.90033429861068726,&#34;a&#34;:1.0},&#34;position&#34;:0.75961536169052124}],&#34;stopsVar&#34;:[{&#34;color&#34;:{&#34;r&#34;:0.92902123928070068,&#34;g&#34;:0.94035726785659790,&#34;b&#34;:0.9743652343750,&#34;a&#34;:1.0},&#34;position&#34;:0.045921899378299713},{&#34;color&#34;:{&#34;r&#34;:0.76169997453689575,&#34;g&#34;:0.82875138521194458,&#34;b&#34;:0.95327526330947876,&#34;a&#34;:1.0},&#34;position&#34;:0.21180714666843414},{&#34;color&#34;:{&#34;r&#34;:0.66892701387405396,&#34;g&#34;:0.72677886486053467,&#34;b&#34;:0.90033429861068726,&#34;a&#34;:1.0},&#34;position&#34;:0.75961536169052124}],&#34;transform&#34;:{&#34;m00&#34;:-5.3750014305114746,&#34;m01&#34;:-27.18750,&#34;m02&#34;:35.437503814697266,&#34;m10&#34;:56.616046905517578,&#34;m11&#34;:-11.193061828613281,&#34;m12&#34;:-24.286329269409180},&#34;opacity&#34;:1.0,&#34;blendMode&#34;:&#34;NORMAL&#34;,&#34;visible&#34;:true}" mask="url(#path-1-inside-1_357_16949)"/>
<path d="M15.1915 10H15.722C16.152 10 16.5 10.348 16.5 10.778V15.7225C16.5 16.152 16.152 16.5 15.722 16.5H10.278C9.848 16.5 9.5 16.152 9.5 15.722V15" stroke="white" stroke-width="0.9" stroke-linecap="round" stroke-linejoin="round"/>
<path fill-rule="evenodd" clip-rule="evenodd" d="M8.00055 15H13.6565C13.991 15 14.303 14.833 14.4885 14.5545L14.8555 14.0035C15.0745 13.675 15.1915 13.289 15.1915 12.894V9C15.1915 8.4475 14.744 8 14.1915 8H9.19155C8.63905 8 8.19155 8.4475 8.19155 9V12.528C8.19155 12.8385 8.11905 13.1445 7.98055 13.4225L7.55355 14.2765C7.38705 14.609 7.62905 15 8.00055 15Z" stroke="white" stroke-width="0.9" stroke-linecap="round" stroke-linejoin="round"/>
<path d="M10.1895 7.5V8.5" stroke="white" stroke-width="0.9" stroke-linecap="round" stroke-linejoin="round"/>
<path d="M13.1895 7.5V8.5" stroke="white" stroke-width="0.9" stroke-linecap="round" stroke-linejoin="round"/>
<path d="M10.0947 10.5H13.0947" stroke="white" stroke-width="0.9" stroke-linecap="round" stroke-linejoin="round"/>
<path d="M10.0947 12.5H13.0947" stroke="white" stroke-width="0.9" stroke-linecap="round" stroke-linejoin="round"/>
<defs>
<clipPath id="paint1_angular_357_16949_clip_path"><path d="M0 12M24 12M24 12M0 12M12 0M24 12M12 24M0 12M12 24V22.8C6.03533 22.8 1.2 17.9647 1.2 12H0H-1.2C-1.2 19.2902 4.70984 25.2 12 25.2V24ZM24 12H22.8C22.8 17.9647 17.9647 22.8 12 22.8V24V25.2C19.2902 25.2 25.2 19.2902 25.2 12H24ZM12 0V1.2C17.9647 1.2 22.8 6.03533 22.8 12H24H25.2C25.2 4.70984 19.2902 -1.2 12 -1.2V0ZM12 0V-1.2C4.70984 -1.2 -1.2 4.70984 -1.2 12H0H1.2C1.2 6.03533 6.03533 1.2 12 1.2V0Z" mask="url(#path-1-inside-1_357_16949)"/></clipPath><linearGradient id="paint0_linear_357_16949" x1="12" y1="0" x2="12" y2="24" gradientUnits="userSpaceOnUse">
<stop stop-color="#2A5267"/>
<stop offset="1" stop-color="#3D7794"/>
</linearGradient>
</defs>
</svg>
