<svg width="25" height="25" viewBox="0 0 25 25" fill="none" xmlns="http://www.w3.org/2000/svg">
<path d="M14.1064 12.4102L14.5053 14.0058" stroke="black" stroke-width="1.5" stroke-linecap="round" stroke-linejoin="round"/>
<path d="M13.0051 16.071C11.5944 16.3509 10.1302 16.0536 8.94045 15.2454C8.74073 15.1125 8.49641 15.0643 8.26117 15.1114L5.41398 15.6806C4.01089 15.961 3.00098 17.193 3.00098 18.6238V19.008" stroke="black" stroke-width="1.5" stroke-linecap="round" stroke-linejoin="round"/>
<path d="M16.0063 7.00314H8.00293" stroke="black" stroke-width="1.5" stroke-linecap="round" stroke-linejoin="round"/>
<path fill-rule="evenodd" clip-rule="evenodd" d="M10.0038 3.00098H14.0054C15.1105 3.00098 16.0063 3.89678 16.0063 5.00181V9.00348C16.0063 11.2135 14.2147 13.0051 12.0046 13.0051V13.0051C9.79454 13.0051 8.00293 11.2135 8.00293 9.00348V5.00181C8.00293 3.89678 8.89873 3.00098 10.0038 3.00098Z" stroke="black" stroke-width="1.5" stroke-linecap="round" stroke-linejoin="round"/>
<path d="M9.90507 12.4102L9.16176 15.3834" stroke="black" stroke-width="1.5" stroke-linecap="round" stroke-linejoin="round"/>
<circle cx="18.5073" cy="18.0073" r="3.50146" stroke="black" stroke-width="1.5" stroke-linecap="round" stroke-linejoin="round"/>
<path d="M19.6751 17.4238L18.217 18.8827L17.3408 18.0074" stroke="black" stroke-width="1.5" stroke-linecap="round" stroke-linejoin="round"/>
<path d="M8.00314 15.1631V19.0081" stroke="black" stroke-width="1.5" stroke-linecap="round" stroke-linejoin="round"/>
<circle cx="8.00355" cy="20.5084" r="1.50063" stroke="black" stroke-width="1.5" stroke-linecap="round" stroke-linejoin="round"/>
</svg>
