<svg width="20" height="20" viewBox="0 0 20 20" fill="none" xmlns="http://www.w3.org/2000/svg">
<path fill-rule="evenodd" clip-rule="evenodd" d="M8.1975 17.5001L4.49417 16.6768C3.81583 16.5268 3.33333 15.9251 3.33333 15.2309V4.80511C3.33333 4.11095 3.81583 3.50928 4.49333 3.35928L8.19667 2.53595C9.1225 2.33011 10 3.03428 10 3.98261V16.0543C10 17.0018 9.1225 17.7059 8.1975 17.5001V17.5001Z" stroke="#002C4D" stroke-width="1.5" stroke-linecap="round" stroke-linejoin="round"/>
<path d="M7.50033 9.15039V10.8171" stroke="#002C4D" stroke-width="1.5" stroke-linecap="round" stroke-linejoin="round"/>
<path d="M16.667 13.333V15.0347C16.667 15.9555 15.9212 16.7013 15.0003 16.7013H12.5003" stroke="#002C4D" stroke-width="1.5" stroke-linecap="round" stroke-linejoin="round"/>
<path d="M16.667 6.66634V4.99967C16.667 4.07884 15.9212 3.33301 15.0003 3.33301H12.5003" stroke="#002C4D" stroke-width="1.5" stroke-linecap="round" stroke-linejoin="round"/>
<path d="M16.667 9.99967H12.5003" stroke="#002C4D" stroke-width="1.5" stroke-linecap="round" stroke-linejoin="round"/>
<path d="M14.167 11.6663L12.5003 9.99967L14.167 8.33301" stroke="#002C4D" stroke-width="1.5" stroke-linecap="round" stroke-linejoin="round"/>
</svg>
