<svg width="286" height="64" viewBox="0 0 286 64" fill="none" xmlns="http://www.w3.org/2000/svg">
<path d="M37.4534 15.7275C38.0398 16.281 38.4946 16.7906 38.9659 17.4427C39.2125 17.7825 39.3824 18.1825 39.7002 18.4675C39.8317 18.4675 39.7221 17.9469 39.7002 17.8537C39.6344 17.5085 39.4865 17.0701 39.3714 16.7303C39.3057 16.544 39.0262 16.0618 39.07 15.9084C39.0865 15.87 39.1139 15.8316 39.1522 15.8097C39.3002 15.733 39.9468 16.0234 40.1605 16.0728C40.988 16.2645 41.799 16.27 42.621 16.0728C42.8402 16.018 43.717 15.6727 43.8431 15.7494C43.8869 15.8207 43.8814 15.8755 43.865 15.9522C43.8047 16.2207 43.5143 16.681 43.4101 16.9934C43.3334 17.2235 43.0978 17.9852 43.2293 18.177L43.3389 18.2044C43.5033 18.1716 43.8321 17.5469 43.9581 17.3715C47.1749 13.0533 53.148 11.4367 58.3265 11.8313C64.4202 12.2916 70.5797 15.2179 76.7337 13.4424C79.0572 12.7738 81.0683 11.486 82.8602 9.90234L83.1397 9.85302C83.0465 10.7901 82.515 11.7381 82.0163 12.5327C79.7147 16.1878 75.0513 19.1908 70.6838 19.3936C64.0038 19.7005 58.6334 14.8781 51.7616 17.0865C48.1777 18.2373 45.3774 20.8732 44.1225 24.4351C43.6841 25.6846 43.4704 27.2847 43.3663 28.5999C43.3279 29.0821 43.3937 29.7068 43.317 30.1781C43.2677 30.496 42.8019 30.7426 42.5443 30.896C41.9634 31.2467 41.1634 31.6632 40.5386 31.9207C40.4455 31.9591 40.0619 32.118 39.9961 32.1235C39.5851 32.1345 39.7331 31.1152 39.7221 30.8357C39.5249 27.082 39.3605 23.8104 36.8616 20.8184C33.9572 17.3386 29.6336 16.0125 25.2003 16.6262C19.3203 17.4373 14.4925 20.9663 8.38235 18.5771C5.0067 17.2564 1.52146 14.4069 0.250114 10.9326C0.173395 10.7243 -0.226644 9.78178 0.178872 9.80918C0.36519 9.82014 1.39542 10.7243 1.64202 10.8997C4.88066 13.2615 8.79882 14.2863 12.7992 13.9849C15.5611 13.7767 18.1586 12.7629 20.8657 12.2478C26.6634 11.1408 32.9654 11.4915 37.4534 15.7275Z" fill="url(#paint0_linear_357_20285)" style="mix-blend-mode:multiply"/>
<path d="M23.2141 30.8085C23.1373 30.7208 23.1867 30.6222 23.2743 30.5619C25.5759 29.7892 27.8501 28.5179 29.5763 26.7972C29.6037 26.7698 29.9599 26.3917 29.7736 26.3807C28.3871 27.2082 27.0117 27.9918 25.4663 28.4905C22.7373 29.3727 19.6083 29.3179 16.9724 28.1452C16.7477 28.0466 15.4271 27.4109 15.4654 27.1972C15.5147 27.1205 15.586 27.0712 15.6682 27.0493C16.2107 26.9013 17.071 26.9013 17.6684 26.8081C19.5315 26.5067 21.4879 25.9149 23.2415 25.2135C24.1237 24.8628 25.5595 24.2709 26.25 23.6517C26.2774 23.6243 26.5459 23.3996 26.3815 23.3887C25.4006 23.7065 24.4525 24.1394 23.4552 24.4189C20.3042 25.3066 16.7203 25.4107 13.5748 24.4518C11.6295 23.8599 8.76893 22.468 7.32223 21.0323C7.07563 20.7857 6.85644 20.5446 7.38799 20.5665C8.59358 20.6268 9.88136 20.9501 11.1253 20.835C17.219 20.835 22.5345 17.3443 28.6173 17.3991C28.8365 17.3991 29.1379 17.4429 29.231 17.6676C29.3516 17.9471 29.4119 18.4238 29.516 18.7471C30.2174 20.9501 31.6915 22.8187 33.5492 24.1668C33.7794 24.3367 35.0069 25.0655 35.0507 25.219C35.0672 25.2738 35.0672 25.3231 35.0507 25.3779C35.0179 25.4875 34.1027 26.3149 33.9383 26.5067C33.1218 27.4493 32.656 28.6001 32.3546 29.8002C32.1957 30.0523 31.6313 30.2934 31.3518 30.4249C29.0338 31.4935 26.3869 32.0196 23.9155 31.1208C23.784 31.0715 23.2743 30.8743 23.2031 30.7975L23.2141 30.8085Z" fill="#102F4B"/>
<path d="M74.9303 20.977C75.0344 21.0647 74.3878 21.4647 74.3385 21.5031C74.1083 21.6894 73.9056 21.9305 73.6535 22.0894C73.4398 22.221 73.2041 22.2538 73.0123 22.3689C72.5685 22.6319 72.1629 22.9881 71.6478 23.2457C67.9653 25.065 63.7293 25.4103 59.7728 24.3362C58.7371 24.0567 57.7397 23.5745 56.7314 23.2895C56.578 23.2457 56.4246 23.1964 56.2602 23.2128C56.1615 23.295 56.7424 23.6841 56.7917 23.717C59.7454 25.6404 63.3074 26.3528 66.672 27.1529C66.7707 27.1748 66.8748 27.1967 66.9406 27.2789C66.9734 27.4214 66.0857 27.8215 65.9268 27.8927C62.3264 29.4545 58.348 29.1202 54.9395 27.2789C54.3148 26.9392 53.7284 26.5117 53.0928 26.1994C53.0763 26.2816 53.1421 26.3035 53.1804 26.3528C53.2846 26.4789 53.4544 26.6323 53.575 26.7474C55.1258 28.1941 57.0383 29.1969 58.8083 30.3477C58.9344 30.5724 58.8083 30.6217 58.6275 30.7039C57.0219 31.4053 54.5723 31.2355 53.016 30.4683C51.1967 29.5696 50.709 28.2872 49.5308 26.8351C49.1527 26.3693 48.5663 25.9364 48.232 25.4925C48.1608 25.3993 48.1005 25.35 48.1389 25.2294C48.1882 25.0596 48.7965 24.7362 48.9718 24.6047C50.8405 23.2402 52.0625 21.7058 52.9338 19.5577C53.0873 19.1851 53.4709 17.8425 53.7065 17.6507C53.8654 17.5192 54.4627 17.4753 54.6929 17.4534C57.3781 17.2068 59.2577 18.0617 61.7127 18.8289C65.5213 20.018 69.5052 21.3168 73.5494 21.103C73.7412 21.0921 74.87 20.9167 74.9303 20.9715V20.977Z" fill="#102F4B"/>
<path d="M45.3775 24.7663C45.52 24.7499 46.0023 25.0294 46.1557 25.117C49.3176 26.9473 50.9123 30.2189 47.8106 33.0849C45.1967 35.507 40.5223 37.0195 37.2727 38.5484C35.7986 39.2443 32.1051 40.7842 33.3546 42.9214C34.5327 44.938 37.7111 46.1381 39.662 47.2505C39.925 47.3985 40.5442 47.6725 40.1552 47.9793C39.7058 48.3355 38.8509 48.6972 38.3139 49.0425C38.0618 49.2014 37.4207 49.7439 37.1905 49.7658C37.0864 49.7768 37.0097 49.7549 36.911 49.7329C36.5768 49.6562 35.8315 49.2562 35.4972 49.0808C32.4504 47.5136 27.9075 44.3571 29.2994 40.3348C30.7242 36.2084 36.785 34.7179 40.4346 33.3589C42.7198 32.5095 47.3887 30.6134 46.0132 27.3638C45.7611 26.7665 45.3008 26.5418 44.9939 26.0979C44.8076 25.8239 45.0487 24.7992 45.3721 24.7663H45.3775Z" fill="#102F4B"/>
<path d="M39.5896 59.8297C39.4087 60.005 37.8524 59.0022 37.6168 58.8378C35.2604 57.1829 34.1644 55.243 35.7153 52.503C36.6633 50.8261 38.1922 49.8397 39.8526 48.952C42.7351 47.4012 45.9518 46.3709 48.4671 44.2064C49.8261 43.0391 50.5714 41.9815 49.1904 40.4033C47.7492 38.7593 45.5244 37.7784 43.6447 36.7646C43.3324 36.5947 43.3817 36.4851 43.6612 36.2824C44.0777 35.981 44.801 35.6631 45.2723 35.3891C45.5627 35.2193 46.4943 34.5617 46.7354 34.5233C47.1574 34.4575 47.8095 34.8302 48.1931 35.0384C51.618 36.929 55.4156 40.0197 53.1086 44.3653C51.3221 47.73 47.2396 49.1986 43.8804 50.4316C41.7103 51.2262 38.8498 51.9057 37.3538 53.7963C35.6495 55.9499 37.4853 57.698 38.9977 59.1776C39.0799 59.2543 39.7047 59.7256 39.5896 59.8351V59.8297Z" fill="#102F4B"/>
<path d="M40.6377 0.0266026C46.9287 -0.356993 53.4443 3.44061 55.861 9.29866C55.9268 9.4521 56.0966 9.79734 56.009 9.9453C55.9158 10.1042 55.0281 10.0659 54.8198 10.0768C54.5403 10.0933 54.1403 10.2412 53.8937 10.0768C53.7019 9.95078 53.2252 8.99179 53.0553 8.71779C47.3616 -0.285754 34.8947 0.1636 29.5737 9.27126C29.3874 9.5891 29.3271 10.0385 28.8833 10.0768C28.5819 10.1042 27.327 10.1097 27.1023 10.0056C27.0584 9.98366 27.0201 9.93434 26.9927 9.89598C26.9324 9.75898 27.0803 9.48498 27.1406 9.3425C29.2066 4.0982 35.103 0.360879 40.6377 0.0266026Z" fill="#102F4B"/>
<path d="M41.0827 6.61892C44.272 6.41616 46.3764 9.47945 45.4119 12.4441C44.5899 14.9649 41.2855 16.1705 39.0551 14.6854C35.6411 12.4167 36.896 6.88744 41.0827 6.61892Z" fill="#102F4B"/>
<path d="M37.6296 31.5979C37.9968 31.9596 38.4571 32.2281 38.8626 32.5405C39.0544 32.7707 38.8188 32.9022 38.6215 33.0008C38.0297 33.2912 37.2789 33.5433 36.6597 33.8064C36.2761 33.9708 35.5966 34.3653 35.2404 34.453C34.7417 34.5736 34.528 34.316 34.2321 33.9653C31.8209 31.165 33.2347 27.7455 35.8377 25.7289C36.161 25.4769 37.0104 24.8795 37.3666 24.7535C37.4981 24.7042 37.6516 24.6877 37.7776 24.759C37.9475 24.8576 38.1338 25.6796 38.0954 25.8714C38.0516 26.0796 37.394 26.7098 37.2186 26.9729C36.2213 28.4579 36.3583 30.3485 37.6406 31.6034L37.6296 31.5979Z" fill="#102F4B"/>
<path d="M42.9233 36.6761C43.011 36.6597 43.159 36.6323 43.1918 36.7364C43.2028 37.4817 43.1535 38.2269 43.1096 38.9722C42.9836 40.945 42.8302 42.9342 42.6713 44.907C42.6329 45.4166 42.6493 45.9865 42.5781 46.4852C42.5452 46.7099 42.474 46.9291 42.2712 47.0606C42.1123 47.1647 41.3232 47.4935 41.1588 47.4771C41.0382 47.4661 40.6218 47.236 40.5176 47.1483C40.3478 47.0113 40.2875 46.8743 40.2601 46.6606C39.997 44.7645 40.2108 42.7753 39.9477 40.8683C40.0244 40.0572 39.8107 39.1311 39.882 38.3365C39.8984 38.1393 39.9861 38.0406 40.1395 37.9365C40.8793 37.4378 42.1287 37.1474 42.9288 36.6816L42.9233 36.6761Z" fill="url(#paint1_linear_357_20285)" style="mix-blend-mode:multiply"/>
<path d="M43.3708 59.8264C43.3598 59.7442 43.3872 59.6729 43.4365 59.6072C43.6393 59.3606 44.1215 59.0373 44.3791 58.7907C46.3902 56.8672 47.4807 54.8999 44.812 52.9052C44.4558 52.6422 43.1187 51.8969 42.9817 51.6174C42.768 51.1845 43.3488 51.0311 43.6612 50.9105C44.116 50.7352 44.7846 50.516 45.2558 50.3954C45.612 50.3077 45.7436 50.2913 46.0504 50.5269C46.8779 51.1681 47.9575 53.4916 48.0287 54.5273C48.1493 56.385 46.7902 57.8646 45.36 58.8455C44.7681 59.251 44.0777 59.6729 43.3708 59.8209V59.8264Z" fill="#102F4B"/>
<path d="M41.4389 64.0014C41.2745 63.8809 41.1594 61.6889 41.132 61.3437C40.8964 58.6475 40.6498 55.8692 40.5183 53.1676C40.4964 52.7675 40.4032 52.1976 40.7813 51.9784C40.9512 51.8798 42.0253 51.4633 42.1678 51.4688C42.3102 51.4743 42.3815 51.5784 42.4089 51.7154C42.4746 52.1264 42.3924 52.9703 42.365 53.4251C42.2061 56.2912 41.976 59.1791 41.7513 62.0396C41.7074 62.5712 41.7677 63.3164 41.5978 63.8206C41.5704 63.9028 41.5595 64.0124 41.4444 63.996L41.4389 64.0014Z" fill="url(#paint2_linear_357_20285)" style="mix-blend-mode:multiply"/>
<path d="M116.447 18.0194V36.4272H112.208V27.9749L112.349 22.3122H112.292L107.744 36.4234H103.866L99.3182 22.3122H99.2611L99.4019 27.9749V36.4272H95.1396V18.0194H101.975L104.874 27.3889L105.906 31.2934H105.963L107.021 27.4155L109.894 18.0156H116.447V18.0194Z" fill="#102F4B"/>
<path d="M124.675 36.7064C123.13 36.7064 121.798 36.4172 120.671 35.8426C119.545 35.2679 118.677 34.4383 118.065 33.3613C117.452 32.2843 117.144 30.9828 117.144 29.4567C117.144 27.9307 117.452 26.6292 118.065 25.5522C118.677 24.4752 119.537 23.6456 120.645 23.0709C121.752 22.4963 123.019 22.207 124.45 22.207C125.881 22.207 127.171 22.4925 128.203 23.0557C129.234 23.6227 130.022 24.4029 130.558 25.3999C131.099 26.3932 131.365 27.5349 131.365 28.8174C131.365 29.1523 131.358 29.4872 131.339 29.8221C131.319 30.157 131.293 30.4348 131.255 30.6593H120.211V28.121H129.162L126.901 28.9848C126.901 27.8698 126.699 27.0135 126.3 26.4199C125.9 25.8262 125.28 25.5255 124.447 25.5255C123.853 25.5255 123.343 25.6663 122.928 25.9442C122.513 26.222 122.194 26.6596 121.98 27.2533C121.767 27.847 121.661 28.6119 121.661 29.5405C121.661 30.469 121.783 31.1921 122.022 31.7591C122.262 32.3262 122.608 32.7334 123.054 32.9846C123.499 33.2357 124.039 33.3613 124.671 33.3613C125.379 33.3613 125.938 33.2205 126.357 32.9427C126.776 32.6649 127.088 32.2729 127.293 31.7706L131.087 33.0264C130.829 33.8256 130.376 34.4992 129.736 35.0472C129.093 35.5952 128.332 36.01 127.449 36.2878C126.566 36.5656 125.642 36.7064 124.675 36.7064Z" fill="#102F4B"/>
<path d="M136.917 36.7057C135.764 36.7057 134.756 36.424 133.892 35.8532C133.028 35.2862 132.358 34.4641 131.883 33.3833C131.407 32.3064 131.171 31.0124 131.171 29.5054C131.171 27.9984 131.418 26.6246 131.909 25.5438C132.4 24.4668 133.089 23.6371 133.972 23.0625C134.855 22.4878 135.871 22.1986 137.024 22.1986C138.287 22.1986 139.307 22.583 140.076 23.3555C140.849 24.1281 141.343 25.1099 141.568 26.2973L141.123 26.8833V16.5625H145.864V36.4202H141.625L141.317 31.6784L141.876 32.097C141.766 33.0256 141.48 33.8362 141.024 34.525C140.567 35.2138 139.992 35.7466 139.296 36.1272C138.599 36.5078 137.804 36.698 136.91 36.698L136.917 36.7057ZM138.561 33.2197C139.102 33.2197 139.562 33.0751 139.943 32.7859C140.323 32.4966 140.616 32.0666 140.822 31.4881C141.027 30.9135 141.13 30.2057 141.13 29.3684C141.13 28.5883 141.031 27.9223 140.837 27.3743C140.643 26.8263 140.354 26.4076 139.973 26.1184C139.593 25.8292 139.132 25.6846 138.592 25.6846C137.774 25.6846 137.127 25.9852 136.655 26.5903C136.179 27.1954 135.943 28.1468 135.943 29.4483C135.943 30.7499 136.175 31.7013 136.64 32.3064C137.104 32.9114 137.747 33.2121 138.565 33.2121L138.561 33.2197Z" fill="#102F4B"/>
<path d="M149.411 20.8641C148.445 20.8641 147.741 20.6815 147.307 20.3199C146.869 19.9584 146.652 19.3837 146.652 18.6036C146.652 17.8234 146.869 17.2221 147.307 16.8606C147.745 16.4991 148.445 16.3164 149.411 16.3164C150.378 16.3164 151.055 16.4991 151.505 16.8606C151.95 17.2221 152.174 17.8044 152.174 18.6036C152.174 19.4028 151.95 19.9546 151.505 20.3199C151.059 20.6815 150.363 20.8641 149.411 20.8641ZM151.782 22.4815V36.4253H147.041V22.4815H151.782Z" fill="#102F4B"/>
<path d="M161.304 17.7381C163.016 17.7381 164.523 18.0045 165.836 18.5335C167.145 19.0624 168.287 19.8388 169.254 20.8625L166.94 23.9565C166.141 23.1192 165.281 22.4913 164.36 22.0727C163.439 21.6541 162.392 21.4448 161.22 21.4448C160.531 21.4448 159.976 21.5209 159.546 21.6693C159.119 21.8177 158.811 22.0232 158.625 22.282C158.438 22.5408 158.347 22.8414 158.347 23.1763C158.347 23.5683 158.529 23.8956 158.891 24.1658C159.253 24.436 159.842 24.6643 160.661 24.8508L163.755 25.5472C165.597 25.9734 166.944 26.5976 167.8 27.4158C168.656 28.234 169.082 29.3224 169.082 30.6772C169.082 32.032 168.748 33.0785 168.078 33.9805C167.408 34.8824 166.487 35.5598 165.319 36.0165C164.147 36.4732 162.807 36.7015 161.304 36.7015C160.078 36.7015 158.906 36.5683 157.791 36.2981C156.676 36.0279 155.671 35.6435 154.777 35.1412C153.887 34.6388 153.133 34.0642 152.517 33.4134L154.83 30.2053C155.295 30.7457 155.866 31.2214 156.547 31.64C157.228 32.0586 157.97 32.3897 158.777 32.6295C159.584 32.873 160.409 32.991 161.247 32.991C161.897 32.991 162.442 32.9263 162.879 32.7969C163.317 32.6675 163.637 32.4734 163.842 32.2109C164.048 31.9521 164.15 31.6438 164.15 31.2899C164.15 30.8979 164.01 30.5706 163.732 30.3004C163.454 30.0302 162.925 29.8019 162.141 29.6154L158.739 28.8619C157.696 28.6222 156.771 28.2987 155.964 27.8991C155.154 27.4995 154.518 26.9591 154.054 26.2817C153.59 25.6043 153.358 24.7518 153.358 23.7281C153.358 22.575 153.674 21.5475 154.305 20.6456C154.937 19.7436 155.847 19.032 157.038 18.5106C158.229 17.9893 159.648 17.7305 161.304 17.7305V17.7381Z" fill="#5EA9B9"/>
<path d="M170.897 36.4234V18.0156H185.233V21.7261H175.696V25.4632H183.281V28.9492H175.696V32.7129H185.599V36.4234H170.901H170.897Z" fill="#5EA9B9"/>
<path d="M203.888 18.0195V36.4273H198.561L192.844 26.4718L191.452 23.7394H191.425L191.535 27.1416V36.4273H187.296V18.0195H192.624L198.34 27.975L199.736 30.7075H199.763L199.653 27.3052V18.0195H203.892H203.888Z" fill="#5EA9B9"/>
<path d="M223.495 36.4234H218.559L217.277 32.2677H210.975L209.665 36.4234H204.84L211.309 18.0156H217.056L223.499 36.4234H223.495ZM211.865 29.0063H216.382L214.122 21.5587L211.861 29.0063H211.865Z" fill="#5EA9B9"/>
<path d="M133.189 41.1953V46.097H132.394V41.1953H133.189Z" fill="#606060"/>
<path d="M136.211 41.1953C136.732 41.1953 137.147 41.3323 137.463 41.6025C137.779 41.8765 137.935 42.2495 137.935 42.7328C137.935 43.2161 137.779 43.5814 137.463 43.8592C137.147 44.1333 136.732 44.2703 136.211 44.2703H135.119V46.097H134.323V41.1953H136.211ZM136.085 43.5852C136.435 43.5852 136.694 43.5129 136.862 43.3683C137.029 43.2237 137.109 43.0106 137.109 42.729C137.109 42.4474 137.025 42.2342 136.862 42.0858C136.694 41.9412 136.435 41.8651 136.085 41.8651H135.119V43.5814H136.085V43.5852Z" fill="#606060"/>
<path d="M140.332 41.1172C140.774 41.1172 141.154 41.2009 141.474 41.3646C141.797 41.532 142.068 41.7756 142.292 42.0952L141.759 42.609C141.573 42.3236 141.36 42.1143 141.124 41.9887C140.888 41.8631 140.61 41.7984 140.29 41.7984C139.929 41.7984 139.666 41.8669 139.503 42.0077C139.339 42.1485 139.259 42.316 139.259 42.5138C139.259 42.6661 139.312 42.7993 139.419 42.9134C139.526 43.0276 139.723 43.1151 140.016 43.1798L141.01 43.4044C141.482 43.5147 141.817 43.6746 142.014 43.8839C142.212 44.0932 142.315 44.3634 142.315 44.6907C142.315 44.9913 142.235 45.2539 142.071 45.4746C141.908 45.6953 141.68 45.8666 141.39 45.9884C141.097 46.1102 140.759 46.1711 140.374 46.1711C139.853 46.1711 139.411 46.0721 139.046 45.878C138.681 45.6839 138.399 45.4404 138.201 45.1473L138.749 44.5993C138.901 44.8619 139.118 45.075 139.4 45.2425C139.678 45.4099 140.013 45.4898 140.397 45.4898C140.74 45.4898 141.006 45.429 141.204 45.3072C141.398 45.1854 141.497 45.0103 141.497 44.782C141.497 44.645 141.447 44.5194 141.352 44.4052C141.257 44.2911 141.074 44.2074 140.816 44.1503L139.739 43.9067C139.293 43.8116 138.962 43.6555 138.753 43.4386C138.544 43.2217 138.433 42.9477 138.433 42.6204C138.433 42.3426 138.509 42.0914 138.662 41.8631C138.814 41.6347 139.035 41.4559 139.32 41.3227C139.605 41.1895 139.944 41.121 140.34 41.121L140.332 41.1172Z" fill="#606060"/>
<path d="M146.931 41.1953C147.7 41.1953 148.297 41.4084 148.723 41.8309C149.149 42.2533 149.366 42.8584 149.366 43.6461C149.366 44.4339 149.153 45.039 148.723 45.4614C148.297 45.8838 147.696 46.097 146.931 46.097H145.199V41.1953H146.931ZM146.931 45.4196C147.452 45.4196 147.848 45.2635 148.122 44.9553C148.396 44.647 148.533 44.2094 148.533 43.6461C148.533 43.0829 148.396 42.6453 148.122 42.337C147.848 42.0287 147.448 41.8727 146.931 41.8727H145.995V45.4234H146.931V45.4196Z" fill="#606060"/>
<path d="M150.516 41.759C150.341 41.759 150.212 41.7171 150.12 41.6296C150.029 41.5421 149.983 41.4203 149.983 41.2605C149.983 41.1006 150.029 40.9826 150.12 40.8951C150.212 40.8114 150.345 40.7695 150.516 40.7695C150.687 40.7695 150.813 40.8114 150.904 40.8951C150.996 40.9788 151.041 41.1006 151.041 41.2605C151.041 41.4203 150.996 41.5421 150.904 41.6296C150.813 41.7171 150.684 41.759 150.516 41.759ZM150.912 42.3831V46.0936H150.117V42.3831H150.912Z" fill="#606060"/>
<path d="M153.926 45.5138C154.303 45.5138 154.596 45.5976 154.801 45.7612C155.01 45.9287 155.113 46.157 155.113 46.4462C155.113 46.7088 155.033 46.9333 154.87 47.1198C154.706 47.3063 154.485 47.4471 154.2 47.5422C153.918 47.6374 153.599 47.6868 153.241 47.6868C152.628 47.6868 152.175 47.5917 151.886 47.4052C151.597 47.2188 151.452 46.9828 151.452 46.7012C151.452 46.5337 151.502 46.3815 151.601 46.2483C151.7 46.1151 151.863 46.0238 152.091 45.9743C151.954 45.9134 151.844 45.8335 151.764 45.727C151.684 45.6204 151.646 45.4834 151.646 45.3159C151.646 45.1485 151.692 45.0077 151.787 44.8821C151.882 44.7565 152.019 44.6614 152.202 44.5967C151.81 44.3722 151.616 44.0296 151.616 43.5654C151.616 43.1886 151.76 42.8842 152.053 42.6558C152.346 42.4275 152.731 42.3095 153.21 42.3095C153.522 42.3095 153.796 42.359 154.036 42.4579C154.074 42.2106 154.185 42.0051 154.363 41.8452C154.542 41.6854 154.767 41.6055 155.041 41.6055H155.102L155.227 42.2296C155.204 42.2258 155.174 42.222 155.14 42.222C154.714 42.222 154.478 42.378 154.428 42.6901C154.691 42.9184 154.82 43.2114 154.82 43.5654C154.82 43.9459 154.676 44.2504 154.382 44.4787C154.089 44.7071 153.701 44.8212 153.218 44.8212C153.016 44.8212 152.83 44.8022 152.662 44.7679C152.529 44.8022 152.434 44.8555 152.377 44.9278C152.32 45.0001 152.293 45.0762 152.293 45.1561C152.293 45.3997 152.468 45.5214 152.822 45.5214H153.937L153.926 45.5138ZM153.241 47.097C153.648 47.097 153.949 47.0437 154.143 46.9333C154.337 46.823 154.436 46.6974 154.436 46.549C154.436 46.4348 154.39 46.3435 154.299 46.275C154.207 46.2065 154.044 46.1722 153.804 46.1722H152.609C152.464 46.1722 152.346 46.2103 152.255 46.2826C152.164 46.3549 152.118 46.4538 152.118 46.5718C152.118 46.7354 152.217 46.8648 152.415 46.9562C152.613 47.0513 152.887 47.097 153.241 47.097ZM153.21 42.8651C152.982 42.8651 152.792 42.9298 152.643 43.0554C152.491 43.181 152.415 43.3522 152.415 43.5654C152.415 43.7785 152.491 43.9497 152.643 44.0791C152.796 44.2085 152.982 44.2732 153.21 44.2732C153.439 44.2732 153.637 44.2085 153.785 44.0791C153.937 43.9497 154.013 43.7785 154.013 43.5654C154.013 43.3522 153.937 43.1848 153.785 43.0554C153.633 42.9298 153.442 42.8651 153.21 42.8651Z" fill="#606060"/>
<path d="M155.923 41.759C155.748 41.759 155.619 41.7171 155.528 41.6296C155.436 41.5421 155.391 41.4203 155.391 41.2605C155.391 41.1006 155.436 40.9826 155.528 40.8951C155.619 40.8114 155.752 40.7695 155.923 40.7695C156.095 40.7695 156.22 40.8114 156.315 40.8951C156.407 40.9788 156.452 41.1006 156.452 41.2605C156.452 41.4203 156.407 41.5421 156.315 41.6296C156.224 41.7171 156.095 41.759 155.923 41.759ZM156.315 42.3831V46.0936H155.52V42.3831H156.315Z" fill="#606060"/>
<path d="M159.596 42.3811V43.0052H158.318V44.9803C158.318 45.1592 158.367 45.2924 158.466 45.3761C158.565 45.4636 158.694 45.5055 158.85 45.5055C158.987 45.5055 159.105 45.4827 159.204 45.4408C159.299 45.3989 159.391 45.3418 159.474 45.2657L159.653 45.8442C159.539 45.9431 159.398 46.0231 159.235 46.0763C159.071 46.1296 158.885 46.1601 158.683 46.1601C158.356 46.1601 158.082 46.0801 157.857 45.9203C157.636 45.7605 157.522 45.4903 157.522 45.1059V42.9976H156.811V42.3735H157.522V41.5058L158.318 41.2812V42.3735H159.596V42.3811Z" fill="#606060"/>
<path d="M162.211 43.7091C162.211 43.4617 162.142 43.2714 162.005 43.1344C161.868 42.9974 161.682 42.9289 161.446 42.9289C161.225 42.9289 161.031 42.9822 160.871 43.0849C160.711 43.1877 160.593 43.3589 160.525 43.5911L159.855 43.3095C159.95 43.0088 160.133 42.7653 160.407 42.5826C160.681 42.3999 161.039 42.3086 161.472 42.3086C161.765 42.3086 162.024 42.3581 162.256 42.4532C162.485 42.5483 162.667 42.6968 162.797 42.8909C162.926 43.0849 162.995 43.3323 162.995 43.6291V45.2846C162.995 45.4673 163.086 45.5586 163.269 45.5586C163.356 45.5586 163.444 45.5472 163.527 45.5205L163.482 46.0685C163.368 46.1218 163.223 46.1485 163.052 46.1485C162.854 46.1485 162.683 46.1028 162.538 46.0153C162.393 45.9277 162.298 45.7945 162.249 45.6157C162.131 45.7983 161.96 45.9353 161.735 46.0267C161.514 46.118 161.29 46.1637 161.065 46.1637C160.715 46.1637 160.422 46.08 160.19 45.9125C159.958 45.7451 159.84 45.4901 159.84 45.1552C159.84 44.885 159.931 44.6567 160.11 44.4778C160.289 44.2989 160.548 44.1771 160.879 44.1048L162.199 43.8461V43.7053L162.211 43.7091ZM160.65 45.0981C160.65 45.2351 160.704 45.3455 160.81 45.4292C160.917 45.5091 161.058 45.551 161.237 45.551C161.404 45.551 161.564 45.5243 161.712 45.4711C161.861 45.4178 161.982 45.3264 162.074 45.2047C162.165 45.0829 162.211 44.9192 162.211 44.7214V44.4093L161.275 44.6034C161.061 44.6414 160.905 44.6985 160.803 44.7746C160.7 44.8469 160.65 44.9573 160.65 45.1019V45.0981Z" fill="#606060"/>
<path d="M164.748 40.7108V45.053C164.748 45.2357 164.779 45.3613 164.844 45.4336C164.908 45.5021 165.015 45.5364 165.163 45.5364C165.251 45.5364 165.327 45.5288 165.388 45.5173C165.449 45.5059 165.529 45.4831 165.62 45.445L165.532 46.0387C165.357 46.1224 165.152 46.1643 164.916 46.1643C164.585 46.1643 164.341 46.0806 164.185 45.9131C164.029 45.7457 163.949 45.4793 163.949 45.1177V40.707H164.745L164.748 40.7108Z" fill="#606060"/>
<path d="M169.852 41.1172C170.293 41.1172 170.674 41.2009 170.993 41.3646C171.313 41.532 171.587 41.7756 171.812 42.0952L171.279 42.609C171.089 42.3236 170.879 42.1143 170.643 41.9887C170.407 41.8631 170.13 41.7984 169.806 41.7984C169.445 41.7984 169.182 41.8669 169.018 42.0077C168.855 42.1447 168.775 42.316 168.775 42.5138C168.775 42.6661 168.828 42.7993 168.935 42.9134C169.041 43.0276 169.239 43.1151 169.532 43.1798L170.525 43.4044C170.997 43.5147 171.332 43.6746 171.53 43.8839C171.728 44.0932 171.831 44.3634 171.831 44.6907C171.831 44.9913 171.751 45.2539 171.587 45.4746C171.423 45.6953 171.195 45.8666 170.906 45.9884C170.613 46.1102 170.274 46.1711 169.89 46.1711C169.368 46.1711 168.927 46.0721 168.562 45.878C168.196 45.6839 167.915 45.4404 167.717 45.1473L168.265 44.5993C168.417 44.8619 168.634 45.075 168.916 45.2425C169.193 45.4099 169.528 45.4898 169.913 45.4898C170.255 45.4898 170.522 45.429 170.719 45.3072C170.917 45.1854 171.012 45.0103 171.012 44.782C171.012 44.645 170.963 44.5194 170.868 44.4052C170.773 44.2911 170.59 44.2074 170.331 44.1503L169.254 43.9067C168.809 43.8116 168.478 43.6555 168.269 43.4386C168.055 43.2217 167.949 42.9477 167.949 42.6204C167.949 42.3426 168.025 42.0914 168.177 41.8631C168.329 41.6347 168.55 41.4559 168.836 41.3227C169.121 41.1895 169.46 41.121 169.856 41.121L169.852 41.1172Z" fill="#606060"/>
<path d="M172.626 46.093V41.1914H176.177V41.8726H173.421V43.2845H175.575V43.9543H173.421V45.408H176.279V46.0892H172.626V46.093Z" fill="#606060"/>
<path d="M181.048 41.1953V46.097H180.104L178.209 43.0068L177.733 42.1391H177.726L177.756 42.9345V46.097H177.029V41.1953H177.965L179.853 44.2779L180.336 45.1608H180.344L180.314 44.3578V41.1953H181.048Z" fill="#606060"/>
<path d="M186.243 46.093H185.402L184.934 44.8067H182.879L182.411 46.093H181.593L183.442 41.1914H184.394L186.243 46.093ZM183.104 44.1636H184.713L183.91 41.8764L183.1 44.1636H183.104Z" fill="#606060"/>
<defs>
<linearGradient id="paint0_linear_357_20285" x1="0.00351471" y1="20.9718" x2="83.1507" y2="20.9718" gradientUnits="userSpaceOnUse">
<stop stop-color="#5EA9B9"/>
<stop offset="0.23" stop-color="#60ADBE"/>
<stop offset="0.52" stop-color="#68BBCD"/>
<stop offset="0.83" stop-color="#74D2E5"/>
<stop offset="1" stop-color="#7DE2F6"/>
</linearGradient>
<linearGradient id="paint1_linear_357_20285" x1="39.86" y1="42.0684" x2="43.1918" y2="42.0684" gradientUnits="userSpaceOnUse">
<stop stop-color="#5EA9B9"/>
<stop offset="0.23" stop-color="#60ADBE"/>
<stop offset="0.52" stop-color="#68BBCD"/>
<stop offset="0.83" stop-color="#74D2E5"/>
<stop offset="1" stop-color="#7DE2F6"/>
</linearGradient>
<linearGradient id="paint2_linear_357_20285" x1="40.4909" y1="57.7379" x2="42.4308" y2="57.7379" gradientUnits="userSpaceOnUse">
<stop stop-color="#5EA9B9"/>
<stop offset="0.23" stop-color="#60ADBE"/>
<stop offset="0.52" stop-color="#68BBCD"/>
<stop offset="0.83" stop-color="#74D2E5"/>
<stop offset="1" stop-color="#7DE2F6"/>
</linearGradient>
</defs>
</svg>
