<svg width="16" height="16" viewBox="0 0 16 16" fill="none" xmlns="http://www.w3.org/2000/svg">
<path d="M6.72863 5.43934C7.31442 6.02513 7.31442 6.97487 6.72863 7.56066C6.14284 8.14645 5.1931 8.14645 4.60731 7.56066C4.02152 6.97487 4.02152 6.02513 4.60731 5.43934C5.1931 4.85355 6.14284 4.85355 6.72863 5.43934" stroke="#2E90FA" stroke-linecap="round" stroke-linejoin="round"/>
<path fill-rule="evenodd" clip-rule="evenodd" d="M1.33398 12.334V3.69465C1.33398 2.94332 1.94332 2.33398 2.69465 2.33398H13.334C14.0707 2.33398 14.6673 2.93065 14.6673 3.66732V12.334C14.6673 13.0707 14.0707 13.6673 13.334 13.6673H2.66732C1.93065 13.6673 1.33398 13.0707 1.33398 12.334Z" stroke="#2E90FA" stroke-linecap="round" stroke-linejoin="round"/>
<path d="M10 6.33333H12.6667" stroke="#2E90FA" stroke-linecap="round" stroke-linejoin="round"/>
<path d="M11.6 9.0013H10" stroke="#2E90FA" stroke-linecap="round" stroke-linejoin="round"/>
<path d="M8.06482 11.0013C7.94815 10.7086 7.76815 10.446 7.53682 10.232V10.232C7.14548 9.8693 6.63215 9.66797 6.09882 9.66797H5.23748C4.70415 9.66797 4.19082 9.8693 3.79948 10.232V10.232C3.56815 10.446 3.38815 10.7086 3.27148 11.0013" stroke="#2E90FA" stroke-linecap="round" stroke-linejoin="round"/>
</svg>
