<svg width="28" height="28" viewBox="0 0 28 28" fill="none" xmlns="http://www.w3.org/2000/svg">
<rect width="28" height="28" rx="14" fill="url(#paint0_linear_356_7505)"/>
<circle cx="18.3039" cy="18.6359" r="2.31757" stroke="white" stroke-width="0.993243" stroke-linecap="round" stroke-linejoin="round"/>
<path d="M19.0763 18.25L18.1112 19.2156L17.5312 18.6362" stroke="white" stroke-width="0.993243" stroke-linecap="round" stroke-linejoin="round"/>
<path fill-rule="evenodd" clip-rule="evenodd" d="M11.2422 11.3519H16.7583C17.124 11.3519 17.4204 11.0555 17.4204 10.6898V10.137C17.4204 9.22988 17.0601 8.35994 16.4187 7.71854C15.7773 7.07713 14.9073 6.7168 14.0003 6.7168V6.7168C13.0932 6.7168 12.2232 7.07713 11.5818 7.71854C10.9404 8.35994 10.5801 9.22988 10.5801 10.137V10.6898C10.5801 11.0555 10.8765 11.3519 11.2422 11.3519Z" stroke="white" stroke-width="0.993243" stroke-linecap="round" stroke-linejoin="round"/>
<path d="M10.3594 11.3526H17.6432" stroke="white" stroke-width="0.993243" stroke-linecap="round" stroke-linejoin="round"/>
<path d="M16.6489 11.3516V12.6756C16.6489 14.1384 15.463 15.3242 14.0002 15.3242V15.3242C12.5374 15.3242 11.3516 14.1384 11.3516 12.6756V11.3516" stroke="white" stroke-width="0.993243" stroke-linecap="round" stroke-linejoin="round"/>
<path d="M12.6118 14.9316L12.1324 16.8495" stroke="white" stroke-width="0.993243" stroke-linecap="round" stroke-linejoin="round"/>
<path d="M14.9943 6.86328V7.77653C14.9943 8.32508 14.5496 8.76977 14.0011 8.76977V8.76977C13.4525 8.76977 13.0078 8.32508 13.0078 7.77653V6.86328" stroke="white" stroke-width="0.993243" stroke-linecap="round" stroke-linejoin="round"/>
<path d="M15.3924 14.9316L15.6565 15.9878" stroke="white" stroke-width="0.993243" stroke-linecap="round" stroke-linejoin="round"/>
<path d="M14.6626 17.2953C13.7289 17.4704 12.7636 17.2744 11.9721 16.749H11.9721C11.8399 16.6609 11.6782 16.6289 11.5224 16.6601L9.63791 17.0369C8.70937 17.2227 8.041 18.038 8.04102 18.9849V19.2971" stroke="white" stroke-width="0.993243" stroke-linecap="round" stroke-linejoin="round"/>
<defs>
<linearGradient id="paint0_linear_356_7505" x1="14" y1="0" x2="14" y2="28" gradientUnits="userSpaceOnUse">
<stop stop-color="#0165B0"/>
<stop offset="1" stop-color="#013156"/>
</linearGradient>
</defs>
</svg>
