<svg width="20" height="20" viewBox="0 0 20 20" fill="none" xmlns="http://www.w3.org/2000/svg">
<path d="M15.3188 6.66602H16.203C16.9197 6.66602 17.4997 7.24602 17.4997 7.96268V16.2035C17.4997 16.9193 16.9197 17.4993 16.203 17.4993H7.12967C6.41301 17.4993 5.83301 16.9193 5.83301 16.2027V14.9993" stroke="url(#paint0_linear_357_16923)" stroke-width="1.4" stroke-linecap="round" stroke-linejoin="round"/>
<path fill-rule="evenodd" clip-rule="evenodd" d="M3.33424 14.9997H12.7609C13.3184 14.9997 13.8384 14.7213 14.1476 14.2572L14.7592 13.3388C15.1242 12.7913 15.3192 12.148 15.3192 11.4897V4.99967C15.3192 4.07884 14.5734 3.33301 13.6526 3.33301H5.31924C4.39841 3.33301 3.65258 4.07884 3.65258 4.99967V10.8797C3.65258 11.3972 3.53174 11.9072 3.30091 12.3705L2.58924 13.7938C2.31174 14.348 2.71508 14.9997 3.33424 14.9997Z" stroke="url(#paint1_linear_357_16923)" stroke-width="1.4" stroke-linecap="round" stroke-linejoin="round"/>
<path d="M6.98307 2.5V4.16667" stroke="url(#paint2_linear_357_16923)" stroke-width="1.4" stroke-linecap="round" stroke-linejoin="round"/>
<path d="M11.9831 2.5V4.16667" stroke="url(#paint3_linear_357_16923)" stroke-width="1.4" stroke-linecap="round" stroke-linejoin="round"/>
<path d="M6.8252 7.49967H11.8252" stroke="url(#paint4_linear_357_16923)" stroke-width="1.4" stroke-linecap="round" stroke-linejoin="round"/>
<path d="M6.8252 10.8327H11.8252" stroke="url(#paint5_linear_357_16923)" stroke-width="1.4" stroke-linecap="round" stroke-linejoin="round"/>
<defs>
<linearGradient id="paint0_linear_357_16923" x1="11.6663" y1="6.66602" x2="11.6663" y2="17.4993" gradientUnits="userSpaceOnUse">
<stop stop-color="#2A5267"/>
<stop offset="1" stop-color="#3D7794"/>
</linearGradient>
<linearGradient id="paint1_linear_357_16923" x1="8.90962" y1="3.33301" x2="8.90962" y2="14.9997" gradientUnits="userSpaceOnUse">
<stop stop-color="#2A5267"/>
<stop offset="1" stop-color="#3D7794"/>
</linearGradient>
<linearGradient id="paint2_linear_357_16923" x1="6.98307" y1="2.5" x2="6.98307" y2="4.16667" gradientUnits="userSpaceOnUse">
<stop stop-color="#2A5267"/>
<stop offset="1" stop-color="#3D7794"/>
</linearGradient>
<linearGradient id="paint3_linear_357_16923" x1="11.9831" y1="2.5" x2="11.9831" y2="4.16667" gradientUnits="userSpaceOnUse">
<stop stop-color="#2A5267"/>
<stop offset="1" stop-color="#3D7794"/>
</linearGradient>
<linearGradient id="paint4_linear_357_16923" x1="9.3252" y1="7.08301" x2="9.3252" y2="7.91634" gradientUnits="userSpaceOnUse">
<stop stop-color="#2A5267"/>
<stop offset="1" stop-color="#3D7794"/>
</linearGradient>
<linearGradient id="paint5_linear_357_16923" x1="9.3252" y1="10.416" x2="9.3252" y2="11.2493" gradientUnits="userSpaceOnUse">
<stop stop-color="#2A5267"/>
<stop offset="1" stop-color="#3D7794"/>
</linearGradient>
</defs>
</svg>
