<svg width="445" height="522" viewBox="0 0 445 522" fill="none" xmlns="http://www.w3.org/2000/svg">
<g opacity="0.06">
<path d="M305.481 128.27C310.264 132.784 313.973 136.941 317.817 142.259C319.829 145.031 321.214 148.293 323.807 150.618C324.879 150.618 323.985 146.372 323.807 145.612C323.27 142.796 322.063 139.22 321.125 136.449C320.589 134.929 318.309 130.996 318.667 129.745C318.801 129.432 319.024 129.119 319.337 128.94C320.544 128.314 325.818 130.683 327.561 131.085C334.31 132.65 340.925 132.695 347.63 131.085C349.417 130.639 356.569 127.823 357.597 128.448C357.954 129.029 357.91 129.476 357.776 130.102C357.284 132.292 354.915 136.047 354.066 138.594C353.44 140.472 351.518 146.684 352.591 148.249L353.485 148.472C354.826 148.204 357.507 143.109 358.535 141.678C384.772 106.458 433.491 93.2727 475.728 96.4908C525.43 100.245 575.669 124.113 625.862 109.631C644.813 104.178 661.217 93.6749 675.832 80.7578L678.112 80.3555C677.352 87.9985 673.016 95.7309 668.949 102.212C650.177 132.024 612.141 156.518 576.518 158.171C522.033 160.674 478.231 121.342 422.183 139.354C392.951 148.74 370.112 170.239 359.876 199.292C356.301 209.482 354.557 222.534 353.708 233.261C353.395 237.194 353.932 242.289 353.306 246.133C352.904 248.725 349.105 250.737 347.004 251.988C342.266 254.849 335.74 258.246 330.645 260.346C329.885 260.659 326.757 261.955 326.22 262C322.868 262.089 324.075 253.776 323.985 251.497C322.376 220.88 321.035 194.196 300.654 169.792C276.965 141.41 241.7 130.594 205.541 135.6C157.582 142.215 118.205 170.999 68.3689 151.512C40.8361 140.74 12.4095 117.498 2.04 89.1606C1.41426 87.4622 -1.84857 79.7745 1.45893 79.9979C2.9786 80.0873 11.3814 87.4622 13.3928 88.8924C39.8081 108.156 71.7658 116.515 104.394 114.056C126.921 112.358 148.107 104.089 170.186 99.8877C217.475 90.8591 268.875 93.7196 305.481 128.27Z" fill="url(#paint0_linear_357_16851)" style="mix-blend-mode:multiply"/>
<path d="M189.315 251.277C188.69 250.562 189.092 249.757 189.807 249.265C208.579 242.963 227.128 232.594 241.207 218.559C241.431 218.336 244.336 215.252 242.816 215.162C231.508 221.911 220.29 228.303 207.685 232.37C185.427 239.566 159.905 239.119 138.407 229.554C136.574 228.75 125.802 223.565 126.115 221.822C126.517 221.196 127.098 220.794 127.769 220.615C132.194 219.408 139.211 219.408 144.083 218.649C159.28 216.19 175.236 211.363 189.539 205.642C196.735 202.782 208.445 197.954 214.077 192.904C214.3 192.68 216.49 190.848 215.15 190.758C207.149 193.351 199.417 196.882 191.282 199.161C165.582 206.402 136.351 207.251 110.695 199.429C94.8279 194.602 71.4966 183.249 59.6969 171.539C57.6855 169.528 55.8977 167.561 60.2332 167.74C70.0663 168.232 80.5699 170.869 90.7159 169.93C140.418 169.93 183.773 141.459 233.386 141.906C235.173 141.906 237.632 142.263 238.391 144.096C239.375 146.375 239.866 150.264 240.716 152.901C246.437 170.869 258.46 186.11 273.612 197.105C275.489 198.491 285.501 204.435 285.859 205.687C285.993 206.134 285.993 206.536 285.859 206.983C285.591 207.877 278.126 214.626 276.785 216.19C270.126 223.878 266.327 233.264 263.868 243.053C262.572 245.109 257.968 247.075 255.689 248.148C236.782 256.864 215.194 261.155 195.036 253.824C193.964 253.422 189.807 251.813 189.226 251.187L189.315 251.277Z" fill="#102F4B"/>
<path d="M611.162 171.09C612.011 171.805 606.737 175.068 606.335 175.381C604.458 176.901 602.804 178.867 600.748 180.164C599.005 181.236 597.083 181.504 595.518 182.443C591.898 184.589 588.591 187.494 584.389 189.594C554.353 204.434 519.803 207.249 487.533 198.489C479.085 196.209 470.951 192.276 462.727 189.952C461.475 189.594 460.224 189.192 458.883 189.326C458.078 189.997 462.816 193.17 463.218 193.438C487.309 209.127 516.362 214.937 543.805 221.463C544.61 221.641 545.459 221.82 545.995 222.491C546.263 223.653 539.023 226.916 537.726 227.497C508.361 240.235 475.912 237.509 448.111 222.491C443.016 219.72 438.233 216.233 433.048 213.686C432.914 214.356 433.451 214.535 433.764 214.937C434.613 215.965 435.998 217.217 436.982 218.155C449.631 229.955 465.23 238.134 479.666 247.52C480.694 249.353 479.666 249.755 478.191 250.426C465.095 256.147 445.116 254.761 432.423 248.504C417.584 241.174 413.606 230.715 403.996 218.87C400.912 215.071 396.13 211.54 393.403 207.92C392.822 207.16 392.33 206.758 392.643 205.774C393.046 204.389 398.007 201.752 399.437 200.679C414.678 189.55 424.646 177.035 431.752 159.514C433.004 156.475 436.132 145.524 438.054 143.96C439.351 142.887 444.222 142.53 446.1 142.351C468.001 140.339 483.331 147.312 503.355 153.569C534.419 163.269 566.913 173.861 599.899 172.118C601.463 172.029 610.67 170.599 611.162 171.046V171.09Z" fill="#102F4B"/>
<path d="M370.115 202.019C371.277 201.885 375.21 204.165 376.461 204.88C402.251 219.808 415.258 246.492 389.96 269.868C368.64 289.624 330.514 301.96 304.009 314.43C291.986 320.106 261.861 332.666 272.052 350.097C281.661 366.545 307.585 376.334 323.497 385.407C325.642 386.614 330.693 388.849 327.519 391.352C323.854 394.257 316.882 397.207 312.501 400.023C310.445 401.319 305.216 405.744 303.339 405.923C302.49 406.012 301.864 405.833 301.059 405.654C298.333 405.029 292.254 401.766 289.528 400.336C264.677 387.552 227.624 361.808 238.977 329.001C250.597 295.345 300.031 283.187 329.799 272.103C348.437 265.175 386.518 249.71 375.299 223.205C373.243 218.333 369.489 216.501 366.986 212.88C365.466 210.646 367.433 202.288 370.07 202.019H370.115Z" fill="#102F4B"/>
<path d="M322.917 487.984C321.442 489.415 308.749 481.235 306.827 479.894C287.607 466.396 278.668 450.574 291.317 428.226C299.05 414.549 311.52 406.504 325.063 399.263C348.573 386.614 374.809 378.211 395.325 360.556C406.409 351.036 412.488 342.41 401.225 329.537C389.47 316.128 371.323 308.128 355.992 299.859C353.445 298.473 353.847 297.579 356.126 295.926C359.523 293.467 365.423 290.875 369.267 288.64C371.636 287.255 379.234 281.891 381.201 281.578C384.642 281.042 389.961 284.081 393.09 285.78C421.025 301.2 451.999 326.408 433.182 361.852C418.611 389.296 385.313 401.274 357.914 411.331C340.215 417.812 316.883 423.354 304.681 438.774C290.781 456.34 305.754 470.598 318.09 482.666C318.761 483.291 323.856 487.135 322.917 488.029V487.984Z" fill="#102F4B"/>
<path d="M331.451 0.216978C382.762 -2.91174 435.905 28.0626 455.616 75.8426C456.152 77.0941 457.538 79.91 456.823 81.1168C456.063 82.4129 448.822 82.1001 447.124 82.1895C444.844 82.3235 441.582 83.5303 439.57 82.1895C438.006 81.1615 434.117 73.3397 432.732 71.1049C386.293 -2.33069 284.609 1.33437 241.209 75.6191C239.69 78.2115 239.198 81.8766 235.578 82.1895C233.119 82.4129 222.884 82.4576 221.051 81.6084C220.694 81.4296 220.381 81.0274 220.157 80.7145C219.666 79.5971 220.873 77.3623 221.364 76.2002C238.215 33.4261 286.308 2.94344 331.451 0.216978Z" fill="#102F4B"/>
<path d="M335.068 53.988C361.081 52.3342 378.245 77.3193 370.378 101.5C363.674 122.06 336.722 131.893 318.531 119.781C290.685 101.276 300.921 56.1781 335.068 53.988Z" fill="#102F4B"/>
<path d="M306.919 257.712C309.914 260.661 313.668 262.852 316.976 265.399C318.54 267.276 316.618 268.349 315.009 269.154C310.182 271.523 304.059 273.579 299.008 275.724C295.879 277.065 290.337 280.283 287.432 280.998C283.364 281.981 281.621 279.881 279.208 277.02C259.541 254.181 271.073 226.29 292.304 209.842C294.941 207.786 301.868 202.914 304.774 201.886C305.846 201.484 307.098 201.35 308.126 201.931C309.511 202.735 311.031 209.44 310.718 211.004C310.361 212.703 304.997 217.843 303.567 219.988C295.432 232.101 296.55 247.521 307.009 257.756L306.919 257.712Z" fill="#102F4B"/>
<path d="M350.094 299.145C350.809 299.011 352.016 298.787 352.284 299.636C352.373 305.715 351.971 311.794 351.613 317.872C350.585 333.963 349.334 350.188 348.038 366.278C347.725 370.435 347.859 375.083 347.278 379.151C347.01 380.983 346.429 382.771 344.775 383.844C343.479 384.693 337.043 387.375 335.702 387.241C334.718 387.151 331.321 385.274 330.472 384.559C329.087 383.442 328.595 382.324 328.372 380.581C326.226 365.116 327.969 348.892 325.824 333.337C326.45 326.722 324.706 319.169 325.287 312.688C325.422 311.079 326.137 310.274 327.388 309.425C333.422 305.358 343.613 302.989 350.138 299.19L350.094 299.145Z" fill="url(#paint1_linear_357_16851)" style="mix-blend-mode:multiply"/>
<path d="M353.763 487.986C353.673 487.315 353.897 486.734 354.299 486.198C355.953 484.187 359.886 481.55 361.987 479.538C378.39 463.85 387.285 447.804 365.518 431.535C362.612 429.389 351.707 423.311 350.589 421.031C348.846 417.5 353.584 416.249 356.131 415.266C359.841 413.835 365.294 412.047 369.138 411.064C372.043 410.349 373.116 410.215 375.619 412.137C382.368 417.366 391.173 436.317 391.754 444.765C392.737 459.917 381.653 471.985 369.987 479.985C365.16 483.293 359.528 486.734 353.763 487.941V487.986Z" fill="#102F4B"/>
<path d="M337.978 522C336.637 521.017 335.698 503.139 335.475 500.323C333.553 478.332 331.542 455.672 330.469 433.636C330.29 430.374 329.53 425.725 332.614 423.937C334 423.133 342.76 419.736 343.922 419.781C345.084 419.825 345.665 420.675 345.889 421.792C346.425 425.144 345.755 432.027 345.531 435.737C344.235 459.113 342.358 482.668 340.525 505.999C340.168 510.335 340.66 516.413 339.274 520.526C339.05 521.196 338.961 522.09 338.022 521.956L337.978 522Z" fill="url(#paint2_linear_357_16851)" style="mix-blend-mode:multiply"/>
<g opacity="0.2">
<path fill-rule="evenodd" clip-rule="evenodd" d="M318.354 83.9308C318.354 83.9308 318.354 84.1095 318.354 84.1542C318.354 84.4224 318.532 84.6459 318.845 84.8247C319.158 84.9588 319.695 85.0482 320.41 85.0482C320.946 85.0482 321.348 85.0035 321.661 84.8694C321.974 84.7353 322.108 84.6012 322.108 84.3777C322.108 84.0648 321.527 83.8414 320.32 83.6626C320.186 83.6626 320.052 83.6179 320.007 83.6179C319.918 83.6179 319.829 83.6179 319.695 83.5732C317.817 83.2603 316.61 82.9474 316.074 82.5899C315.806 82.4111 315.627 82.1876 315.493 81.9641C315.359 81.7407 315.27 81.4725 315.27 81.1596C315.27 80.4445 315.717 79.8634 316.566 79.5059C317.415 79.1483 318.711 78.9248 320.32 78.9248C321.929 78.9248 323.181 79.1036 323.985 79.4612C324.79 79.8187 325.192 80.3551 325.192 81.1149V81.2043H322.063C322.063 80.9361 321.929 80.7126 321.572 80.5786C321.259 80.4445 320.767 80.3551 320.186 80.3551C319.695 80.3551 319.337 80.3998 319.114 80.4892C318.89 80.5786 318.711 80.7126 318.711 80.8914C318.711 81.2043 319.382 81.4725 320.723 81.696C320.991 81.7407 321.17 81.7853 321.348 81.7853C322.332 81.9194 323.002 82.0982 323.404 82.1876C323.807 82.3217 324.164 82.4558 324.477 82.5899C324.79 82.7687 325.058 82.9921 325.237 83.2603C325.416 83.5285 325.505 83.8414 325.505 84.1542C325.505 84.9141 325.013 85.4951 324.075 85.8974C323.136 86.2996 321.795 86.5231 320.007 86.5231C318.22 86.5231 317.013 86.2996 316.253 85.9421C315.448 85.5398 315.091 84.9141 315.091 84.0648V83.9755H318.398L318.354 83.9308ZM326.846 86.389V78.9695H335.696V80.5786H330.153V81.7853H335.249V83.3497H330.153V84.78H335.919V86.389H326.846ZM337.305 86.389V78.9695H341.506L346.02 83.9755V78.9695H349.194V86.4337H344.814L340.478 81.4278V86.4337H337.305V86.389ZM357.82 83.3944L356.211 80.6679L354.557 83.3944H357.82ZM352.725 86.389H349.373L354.513 78.9248H358.223L363.139 86.389H359.429L358.669 85.0482H353.485L352.68 86.389H352.725Z" fill="white"/>
<path fill-rule="evenodd" clip-rule="evenodd" d="M323.007 112.581L320.057 109.81L329.086 94.1218C329.577 93.2726 328.952 92.1998 327.968 92.1998H313.174V88.2666H336.997L323.007 112.581Z" fill="white"/>
<path fill-rule="evenodd" clip-rule="evenodd" d="M355.188 112.582L358.138 109.811L349.109 94.1228C348.618 93.2735 349.244 92.2008 350.227 92.2008H365.021V88.2676H341.198L355.143 112.627L355.188 112.582Z" fill="white"/>
<path fill-rule="evenodd" clip-rule="evenodd" d="M338.968 92.3779L352.377 114.547L348.801 116.38L340.175 101.898C339.683 101.049 338.432 101.049 337.94 101.898C335.035 106.77 329.358 116.38 329.358 116.38L325.872 114.637C325.872 114.637 338.253 93.5847 338.968 92.3779Z" fill="white"/>
<path d="M339.142 76.9137C342.203 76.9137 344.684 74.4323 344.684 71.3714C344.684 68.3105 342.203 65.8291 339.142 65.8291C336.081 65.8291 333.6 68.3105 333.6 71.3714C333.6 74.4323 336.081 76.9137 339.142 76.9137Z" fill="white"/>
</g>
</g>
<defs>
<linearGradient id="paint0_linear_357_16851" x1="0.028667" y1="171.044" x2="678.201" y2="171.044" gradientUnits="userSpaceOnUse">
<stop stop-color="#5EA9B9"/>
<stop offset="0.23" stop-color="#60ADBE"/>
<stop offset="0.52" stop-color="#68BBCD"/>
<stop offset="0.83" stop-color="#74D2E5"/>
<stop offset="1" stop-color="#7DE2F6"/>
</linearGradient>
<linearGradient id="paint1_linear_357_16851" x1="325.109" y1="343.126" x2="352.284" y2="343.126" gradientUnits="userSpaceOnUse">
<stop stop-color="#5EA9B9"/>
<stop offset="0.23" stop-color="#60ADBE"/>
<stop offset="0.52" stop-color="#68BBCD"/>
<stop offset="0.83" stop-color="#74D2E5"/>
<stop offset="1" stop-color="#7DE2F6"/>
</linearGradient>
<linearGradient id="paint2_linear_357_16851" x1="330.245" y1="470.913" x2="346.068" y2="470.913" gradientUnits="userSpaceOnUse">
<stop stop-color="#5EA9B9"/>
<stop offset="0.23" stop-color="#60ADBE"/>
<stop offset="0.52" stop-color="#68BBCD"/>
<stop offset="0.83" stop-color="#74D2E5"/>
<stop offset="1" stop-color="#7DE2F6"/>
</linearGradient>
</defs>
</svg>
