<svg width="68" height="65" viewBox="0 0 68 65" fill="none" xmlns="http://www.w3.org/2000/svg">
<path fill-rule="evenodd" clip-rule="evenodd" d="M33.847 0C37.8392 0 41.0846 3.23618 41.0846 7.20996C41.0846 11.1837 37.83 14.4199 33.847 14.4199C29.8548 14.4199 26.6094 11.1837 26.6094 7.20996C26.6094 3.23618 29.864 0 33.847 0Z" fill="#40AB35"/>
<path fill-rule="evenodd" clip-rule="evenodd" d="M7.47693 23.261V23.2886C7.44928 23.4085 7.44006 23.5007 7.44006 23.556C7.44006 23.9248 7.65211 24.2014 8.07623 24.3858C8.50956 24.5702 9.1734 24.6532 10.0677 24.6532C10.75 24.6532 11.2848 24.5794 11.672 24.4319C12.0592 24.2844 12.2528 24.0815 12.2528 23.8234C12.2528 23.4269 11.4876 23.1134 9.94787 22.8645C9.77269 22.8368 9.63439 22.8092 9.55141 22.8C9.45 22.7815 9.3117 22.7539 9.11808 22.7262C6.68402 22.3298 5.11664 21.9056 4.42515 21.4446C4.08401 21.2141 3.83508 20.956 3.6599 20.6425C3.49394 20.3383 3.40174 19.9879 3.40174 19.6099C3.40174 18.6695 3.96415 17.9503 5.07976 17.4524C6.19537 16.9638 7.83651 16.7148 9.99397 16.7148C12.1238 16.7148 13.7004 16.9453 14.7238 17.4063C15.7472 17.8673 16.2635 18.5773 16.2635 19.5361V19.6468H12.2344V19.6007C12.2344 19.2688 12.0316 19.0198 11.6259 18.8539C11.2202 18.6879 10.6209 18.5957 9.82801 18.5957C9.2195 18.5957 8.74006 18.651 8.41737 18.7801C8.08545 18.9 7.91949 19.0751 7.91949 19.2964C7.91949 19.6929 8.79538 20.034 10.5564 20.3106C10.8975 20.3567 11.1649 20.4028 11.3493 20.4305C12.6032 20.6333 13.4975 20.8177 14.0231 20.9652C14.5578 21.1127 15.0096 21.2879 15.3968 21.4907C15.8209 21.7212 16.1621 22.0163 16.3926 22.3759C16.6231 22.7354 16.7429 23.1134 16.7429 23.5376C16.7429 24.5056 16.1344 25.2525 14.9174 25.778C13.7004 26.3035 11.9394 26.5617 9.65283 26.5617C7.39395 26.5617 5.75281 26.3127 4.73863 25.8056C3.72444 25.2986 3.22656 24.4964 3.22656 23.3808V23.2425H7.46771L7.47693 23.261ZM18.5224 26.4234V16.8716H30.0196V18.9368H22.8465V20.4581H29.4848V22.4957H22.8465V24.3489H30.2962V26.4326H18.5316L18.5224 26.4234ZM32.0941 26.4234V16.8716H37.5522L43.3977 23.2794V16.8716H47.5466V26.4234H41.8764L36.2246 19.9879V26.4234H32.0941ZM58.7027 22.6064L56.6374 19.1305L54.4523 22.6064H58.7027ZM52.1197 26.4234H47.7863L54.4708 16.8716H59.2559L65.6268 26.4234H60.8233L59.846 24.6993H53.1523L52.1105 26.4234H52.1197Z" fill="#40AB35"/>
<path fill-rule="evenodd" clip-rule="evenodd" d="M12.7788 60.1133L8.92486 56.5267L20.6618 36.3628C21.298 35.2657 20.5051 33.8919 19.2143 33.8919C12.5944 33.8919 0 33.8919 0 33.8919V28.8486H30.9328L12.7788 60.1133Z" fill="#40AB35"/>
<path fill-rule="evenodd" clip-rule="evenodd" d="M54.5827 60.1133L58.4366 56.5267L46.6997 36.3628C46.0635 35.2657 46.8564 33.8919 48.1472 33.8919C54.7671 33.8919 67.3615 33.8919 67.3615 33.8919V28.8486H36.4287L54.5827 60.1133Z" fill="#40AB35"/>
<path fill-rule="evenodd" clip-rule="evenodd" d="M33.6436 34.1685C33.6713 34.1224 33.6897 34.0947 33.6897 34.0947L51.1153 62.6118L46.4869 64.9998L35.2571 46.3848C34.5933 45.2877 32.989 45.2877 32.3344 46.3848C28.5911 52.6267 21.1783 64.9998 21.1783 64.9998L16.6514 62.7778C16.6514 62.7778 32.7216 35.7359 33.6529 34.1685H33.6436Z" fill="#40AB35"/>
</svg>
