<svg width="20" height="20" viewBox="0 0 20 20" fill="none" xmlns="http://www.w3.org/2000/svg">
<path d="M10 4.87022C7.15984 4.87022 4.87019 7.15984 4.87019 10C4.87019 12.8402 7.15984 15.1298 10 15.1298C12.8402 15.1298 15.1298 12.8402 15.1298 10C15.1298 7.15984 12.8402 4.87022 10 4.87022ZM10 13.3406C8.16078 13.3406 6.65937 11.8392 6.65937 10C6.65937 8.16078 8.16078 6.65939 10 6.65939C11.8392 6.65939 13.3406 8.16078 13.3406 10C13.3406 11.8392 11.8392 13.3406 10 13.3406ZM16.5436 4.65747C16.5436 5.32059 16.0056 5.85862 15.3425 5.85862C14.6794 5.85862 14.1414 5.32059 14.1414 4.65747C14.1414 3.99435 14.6794 3.45639 15.3425 3.45639C16.0056 3.45639 16.5436 3.99435 16.5436 4.65747ZM19.9343 5.87115C19.8592 4.26964 19.4964 2.84326 18.3203 1.67967C17.1442 0.50357 15.7304 0.140757 14.1289 0.0656866C12.4773 -0.0218955 7.52267 -0.0218955 5.87113 0.0656866C4.26963 0.140757 2.85581 0.50357 1.67971 1.67967C0.503608 2.85577 0.140757 4.26964 0.0656866 5.87115C-0.0218955 7.52269 -0.0218955 12.4773 0.0656866 14.1289C0.140757 15.7304 0.503608 17.1567 1.67971 18.3203C2.85581 19.4964 4.26963 19.8592 5.87113 19.9343C7.52267 20.0219 12.4773 20.0219 14.1289 19.9343C15.7304 19.8592 17.1567 19.4964 18.3203 18.3203C19.4964 17.1442 19.8592 15.7304 19.9343 14.1289C20.0219 12.4773 20.0219 7.52269 19.9343 5.87115ZM17.8073 15.9055C17.457 16.7813 16.7814 17.457 15.9055 17.8073C14.5918 18.3328 11.4639 18.2077 10 18.2077C8.53613 18.2077 5.4082 18.3203 4.09446 17.8073C3.21864 17.457 2.543 16.7813 2.19268 15.9055C1.66718 14.5918 1.79231 11.4639 1.79231 10C1.79231 8.53613 1.6797 5.40823 2.19268 4.0945C2.543 3.21868 3.21864 2.54302 4.09446 2.1927C5.4082 1.6672 8.53613 1.79231 10 1.79231C11.4639 1.79231 14.5918 1.67971 15.9055 2.1927C16.7814 2.54302 17.457 3.21868 17.8073 4.0945C18.3328 5.40823 18.2077 8.53613 18.2077 10C18.2077 11.4639 18.3328 14.5918 17.8073 15.9055Z" fill="#002237"/>
</svg>
