<svg width="16" height="16" viewBox="0 0 16 16" fill="none" xmlns="http://www.w3.org/2000/svg">
<path d="M5.33203 14.0011V2.66304C5.33203 2.29469 5.63063 1.99609 5.99898 1.99609H10.0006C10.369 1.99609 10.6676 2.29469 10.6676 2.66304V14.0011" stroke="#2E90FA" stroke-linecap="round" stroke-linejoin="round"/>
<path d="M14.0007 14.0013V5.27298C14.0007 4.93669 13.7281 4.66406 13.3918 4.66406H10.666" stroke="#2E90FA" stroke-linecap="round" stroke-linejoin="round"/>
<path d="M5.33082 4.66406H2.60501C2.26872 4.66406 1.99609 4.93669 1.99609 5.27298V14.0013" stroke="#2E90FA" stroke-linecap="round" stroke-linejoin="round"/>
<path d="M10.666 6.6655H12.3334" stroke="#2E90FA" stroke-linecap="round" stroke-linejoin="round"/>
<path d="M10.666 8.6655H12.3334" stroke="#2E90FA" stroke-linecap="round" stroke-linejoin="round"/>
<path d="M10.666 10.6675H12.3334" stroke="#2E90FA" stroke-linecap="round" stroke-linejoin="round"/>
<path d="M3.66406 6.6655H5.33142" stroke="#2E90FA" stroke-linecap="round" stroke-linejoin="round"/>
<path d="M3.66406 8.6655H5.33142" stroke="#2E90FA" stroke-linecap="round" stroke-linejoin="round"/>
<path d="M3.66406 10.6675H5.33142" stroke="#2E90FA" stroke-linecap="round" stroke-linejoin="round"/>
<path d="M6.99805 8.6655H8.99888" stroke="#2E90FA" stroke-linecap="round" stroke-linejoin="round"/>
<path d="M6.99805 10.6675H8.99888" stroke="#2E90FA" stroke-linecap="round" stroke-linejoin="round"/>
<path d="M6.99805 6.6655H8.99888" stroke="#2E90FA" stroke-linecap="round" stroke-linejoin="round"/>
<path d="M6.99805 4.6655H8.99888" stroke="#2E90FA" stroke-linecap="round" stroke-linejoin="round"/>
<path d="M7.99949 12.668V14.0019" stroke="#2E90FA" stroke-linecap="round" stroke-linejoin="round"/>
<path d="M14.669 14.0014H1.33008" stroke="#2E90FA" stroke-linecap="round" stroke-linejoin="round"/>
</svg>
