<svg width="20" height="15" viewBox="0 0 20 15" fill="none" xmlns="http://www.w3.org/2000/svg">
<path d="M19.587 2.20276C19.3617 1.33919 18.6734 0.65077 17.8223 0.425489C16.2578 -4.27825e-05 10 0 10 0C10 0 3.7422 -4.27825e-05 2.17775 0.425489C1.31417 0.663286 0.638319 1.33919 0.413037 2.20276C2.13726e-05 3.77973 0 7.05884 0 7.05884C0 7.05884 2.13726e-05 10.3379 0.413037 11.9149C0.638319 12.7785 1.32668 13.4418 2.17775 13.6671C3.7422 14.0926 10 14.0926 10 14.0926C10 14.0926 16.2578 14.0926 17.8223 13.6671C18.6859 13.4293 19.3617 12.7785 19.587 11.9149C20 10.3379 20 7.05884 20 7.05884C20 7.05884 20 3.77973 19.587 2.20276ZM7.93491 10.025V4.06758L13.1665 7.04631L7.93491 10.025Z" fill="#002237"/>
</svg>
